<svg width="81" height="31" viewBox="0 0 81 31" fill="none" xmlns="http://www.w3.org/2000/svg">
<path d="M67.328 31.0003C63.56 31.0003 60.4941 28.1357 60.4941 24.6149C60.4941 21.0941 63.5591 18.2295 67.328 18.2295C71.0969 18.2295 74.1618 21.0933 74.1618 24.6149C74.1618 28.1365 71.096 31.0003 67.328 31.0003ZM67.328 19.8906C64.5404 19.8906 62.2719 22.0102 62.2719 24.6149C62.2719 27.2204 64.5404 29.3392 67.328 29.3392C70.1165 29.3392 72.3841 27.2196 72.3841 24.6149C72.3849 22.0102 70.1165 19.8906 67.328 19.8906Z" fill="black"/>
<path d="M17.6283 31.0003C13.8602 31.0003 10.7944 28.1357 10.7944 24.6149C10.7944 21.0941 13.8602 18.2295 17.6283 18.2295C21.3963 18.2295 24.4621 21.0933 24.4621 24.6149C24.4621 28.1365 21.3963 31.0003 17.6283 31.0003ZM17.6283 19.8906C14.8407 19.8906 12.5722 22.0102 12.5722 24.6149C12.5722 27.2204 14.8407 29.3392 17.6283 29.3392C20.4159 29.3392 22.6843 27.2196 22.6843 24.6149C22.6843 22.0102 20.4159 19.8906 17.6283 19.8906Z" fill="black"/>
<path d="M12.2322 27.7777C12.1478 27.7777 12.0625 27.7661 11.9771 27.7429L5.23305 25.86C2.52013 25.1033 0.625 22.7254 0.625 20.08V14.9787C0.625 13.8923 0.93967 12.8242 1.53434 11.8915L5.97173 4.93048C7.60374 2.36984 10.5993 0.779297 13.7887 0.779297H40.8201C43.4495 0.779297 46.0397 1.43046 48.3109 2.66303L57.8719 7.8466L73.0489 11.776C77.5103 12.9313 80.625 16.7594 80.625 21.0842V23.8832C80.625 25.5269 79.3103 26.9364 77.5681 27.1606L72.8454 27.7694C72.3538 27.8367 71.9094 27.5144 71.8436 27.0601C71.776 26.6058 72.1165 26.1864 72.6027 26.1241L77.3254 25.5153C78.1939 25.4031 78.8481 24.7013 78.8481 23.8832V21.0842C78.8481 17.5028 76.2685 14.3342 72.5751 13.3773L57.2879 9.41886C57.2141 9.39976 57.1447 9.37235 57.079 9.33664L47.4193 4.09908C45.4175 3.01353 43.1366 2.44043 40.821 2.44043H13.7896C11.2233 2.44043 8.81265 3.72034 7.49974 5.78015L3.06147 12.7411C2.63036 13.4172 2.4028 14.1913 2.4028 14.9787V20.08C2.4028 21.9978 3.77615 23.7204 5.74239 24.2694L12.4856 26.1523C12.9558 26.2835 13.2234 26.7462 13.0829 27.1855C12.9682 27.5452 12.6154 27.7777 12.2322 27.7777Z" fill="black"/>
<path d="M61.9336 27.7778H23.0256C22.5349 27.7778 22.1367 27.4066 22.1367 26.9473C22.1367 26.488 22.5349 26.1167 23.0256 26.1167H61.9336C62.4252 26.1167 62.8225 26.488 62.8225 26.9473C62.8225 27.4066 62.4243 27.7778 61.9336 27.7778Z" fill="black"/>
<path d="M50.9527 12.8406H13.1114C11.8447 12.8406 10.6909 12.2393 10.026 11.2326C9.36021 10.226 9.30155 8.99258 9.86866 7.93443L13.4571 1.23756C13.6767 0.827262 14.2109 0.660319 14.65 0.86713C15.0892 1.07228 15.2669 1.57145 15.0465 1.98175L11.458 8.67862C11.1691 9.21766 11.1985 9.84723 11.538 10.3605C11.8776 10.8738 12.4651 11.1803 13.1114 11.1803H50.9527C52.2274 11.1803 53.4638 10.755 54.4354 9.98427L56.9492 7.98676C57.3216 7.69025 57.8825 7.73094 58.2016 8.08144C58.519 8.43111 58.4745 8.9552 58.1003 9.25254L55.5865 11.2501C54.294 12.275 52.6487 12.8406 50.9527 12.8406Z" fill="black"/>
<path d="M67.3284 25.4411C67.2128 25.4411 67.0972 25.4237 66.9906 25.383C66.875 25.3415 66.7861 25.2833 66.6972 25.2003C66.5283 25.0425 66.4395 24.8348 66.4395 24.6106C66.4395 24.5599 66.4483 24.5026 66.4572 24.4528C66.4661 24.4029 66.4839 24.3448 66.5115 24.2958C66.5292 24.2451 66.5559 24.1961 66.5915 24.1546C66.6181 24.1122 66.6626 24.0632 66.6981 24.03C67.027 23.7144 67.6315 23.7227 67.9604 24.03C67.9959 24.0632 68.0315 24.1131 68.067 24.1546C68.1026 24.1961 68.1284 24.2451 68.147 24.2958C68.1737 24.3456 68.1915 24.4038 68.2004 24.4528C68.2101 24.5034 68.219 24.5607 68.219 24.6106C68.219 24.7268 68.1924 24.8348 68.1479 24.9345C68.1035 25.0342 68.0412 25.1255 67.9612 25.2003C67.8715 25.2833 67.7746 25.3415 67.6679 25.383C67.5612 25.4245 67.4439 25.4411 67.3284 25.4411Z" fill="black"/>
<path d="M17.6301 25.4495C17.5146 25.4495 17.399 25.4245 17.2923 25.383C17.1857 25.3415 17.0879 25.2833 16.999 25.2003C16.8301 25.0425 16.7412 24.8348 16.7412 24.6106C16.7412 24.5026 16.759 24.3946 16.8123 24.295C16.8568 24.1953 16.919 24.1039 16.999 24.0292C17.3279 23.7136 17.9234 23.7136 18.2523 24.0292C18.4212 24.1787 18.519 24.3946 18.519 24.6106C18.519 24.8348 18.4212 25.0425 18.2523 25.2003C18.0923 25.3573 17.8701 25.4495 17.6301 25.4495Z" fill="black"/>
<path d="M39.1723 12.8408C38.7705 12.8408 38.407 12.585 38.3092 12.2037L35.6381 1.80336C35.5234 1.35735 35.8176 0.90884 36.295 0.801697C36.7741 0.695384 37.2523 0.969472 37.367 1.41549L40.0381 11.8159C40.1528 12.2619 39.8586 12.7104 39.3812 12.8175C39.311 12.8333 39.2408 12.8408 39.1723 12.8408Z" fill="black"/>
<path d="M19.5768 12.8415C19.4808 12.8415 19.383 12.8266 19.287 12.7959C18.823 12.6464 18.5768 12.1729 18.7368 11.7402L22.5804 1.33985C22.7404 0.906289 23.2471 0.677883 23.7102 0.825724C24.1742 0.975226 24.4204 1.44865 24.2604 1.88221L20.4168 12.2826C20.2897 12.6248 19.9448 12.8415 19.5768 12.8415Z" fill="black"/>
</svg>
