<svg width="81" height="30" viewBox="0 0 81 30" fill="none" xmlns="http://www.w3.org/2000/svg">
<path d="M64.5605 29.9999C60.5365 29.9999 57.2627 26.7261 57.2627 22.7021C57.2627 18.6781 60.5365 15.4043 64.5605 15.4043C68.5845 15.4043 71.8583 18.6781 71.8583 22.7021C71.8583 26.7261 68.5845 29.9999 64.5605 29.9999ZM64.5605 17.1821C61.5169 17.1821 59.0405 19.6585 59.0405 22.7021C59.0405 25.7457 61.5169 28.2221 64.5605 28.2221C67.6041 28.2221 70.0805 25.7457 70.0805 22.7021C70.0805 19.6585 67.6032 17.1821 64.5605 17.1821Z" fill="black"/>
<path d="M16.2569 29.9999C12.2329 29.9999 8.95996 26.7261 8.95996 22.7021C8.95996 18.6781 12.2337 15.4043 16.2569 15.4043C20.28 15.4043 23.5547 18.6781 23.5547 22.7021C23.5547 26.7261 20.2809 29.9999 16.2569 29.9999ZM16.2569 17.1821C13.2133 17.1821 10.7377 19.6585 10.7377 22.7021C10.7377 25.7457 13.2142 28.2221 16.2569 28.2221C19.3004 28.2221 21.7769 25.7457 21.7769 22.7021C21.7769 19.6585 19.3004 17.1821 16.2569 17.1821Z" fill="black"/>
<path d="M10.441 26.2816C10.3708 26.2816 10.3006 26.2736 10.2295 26.2567L3.95213 24.727C2.02857 24.2585 0.73968 22.4861 0.886348 20.5118L1.45346 12.862C1.55835 11.4443 2.07924 10.1065 2.95924 8.9927L5.98681 5.15713C8.54326 1.9189 12.3762 0.0620117 16.5015 0.0620117H37.6571C40.0145 0.0620117 42.3398 0.68779 44.3798 1.87179L55.2874 8.2007L76.0003 12.8994C78.8697 13.55 80.875 16.0603 80.875 19.0043V21.7403C80.875 23.6834 79.4181 25.3056 77.4865 25.5145L70.4723 26.2763C69.9799 26.3296 69.5452 25.9767 69.4919 25.4887C69.4385 24.9999 69.7914 24.5616 70.2794 24.5083L77.2945 23.7465C78.323 23.6363 79.0972 22.7732 79.0972 21.7403V19.0043C79.0972 16.8967 77.6617 15.0994 75.6065 14.6336L54.7612 9.90471C54.6732 9.88515 54.5905 9.85137 54.5123 9.80693L43.4882 3.40958C41.7185 2.38291 39.7025 1.84068 37.6571 1.84068H16.5006C12.9228 1.84068 9.59926 3.45135 7.38148 6.26025L4.35391 10.0958C3.69524 10.9305 3.30502 11.9323 3.22591 12.9945L2.6588 20.6443C2.57702 21.7474 3.29791 22.7376 4.37347 22.9998L10.6508 24.5296C11.1282 24.6461 11.4206 25.127 11.3042 25.6034C11.2046 26.0096 10.841 26.2816 10.441 26.2816Z" fill="black"/>
<path d="M58.7444 26.2817H22.0749C21.5843 26.2817 21.186 25.8844 21.186 25.3928C21.186 24.9012 21.5843 24.5039 22.0749 24.5039H58.7435C59.235 24.5039 59.6324 24.9012 59.6324 25.3928C59.6324 25.8844 59.235 26.2817 58.7444 26.2817Z" fill="black"/>
<path d="M46.4321 11.9226H18.7707C17.1263 11.9226 15.5832 11.1181 14.6418 9.76966C13.7005 8.4221 13.4774 6.69587 14.0445 5.15276L15.6987 0.644301C15.8676 0.182966 16.3787 -0.0517008 16.8401 0.1163C17.3014 0.285189 17.537 0.7963 17.3681 1.25763L15.7129 5.76609C15.3405 6.77943 15.4818 7.86743 16.0996 8.75277C16.7174 9.6381 17.6916 10.1448 18.7707 10.1448H46.4321C48.9139 10.1448 51.3273 9.64432 53.6028 8.65588L54.6037 8.22121C55.0562 8.02565 55.5779 8.23277 55.7726 8.68343C55.9691 9.13321 55.7619 9.65677 55.3113 9.85232L54.3104 10.287C51.8099 11.3723 49.1584 11.9226 46.4321 11.9226Z" fill="black"/>
<path d="M64.5628 23.5909C64.4384 23.5909 64.3228 23.5642 64.2162 23.5198C64.1095 23.4753 64.0126 23.4131 63.9317 23.3331C63.7637 23.1642 63.665 22.942 63.665 22.702C63.665 22.4709 63.7628 22.2389 63.9317 22.0709C64.2517 21.742 64.8562 21.742 65.185 22.0709C65.3539 22.2389 65.4428 22.4611 65.4428 22.702C65.4428 22.942 65.3539 23.1642 65.185 23.3331C65.105 23.4131 65.0073 23.4753 64.9015 23.5198C64.7948 23.5642 64.6793 23.5909 64.5628 23.5909Z" fill="black"/>
<path d="M16.2526 23.5912C16.137 23.5912 16.0214 23.5646 15.9148 23.5201C15.8081 23.4757 15.7103 23.4135 15.6303 23.3335C15.4614 23.1646 15.3726 22.9424 15.3726 22.7024C15.3726 22.5868 15.3903 22.4712 15.4348 22.3646C15.4792 22.249 15.5503 22.1601 15.6303 22.0712C15.8703 21.8224 16.2703 21.7424 16.5992 21.8846C16.7059 21.929 16.8037 21.9912 16.8837 22.0712C17.0526 22.2392 17.1503 22.4712 17.1503 22.7024C17.1503 22.9424 17.0526 23.1646 16.8837 23.3335C16.7148 23.5024 16.4926 23.5912 16.2526 23.5912Z" fill="black"/>
<path d="M32.9769 11.9224C32.5262 11.9224 32.1396 11.5811 32.0934 11.1233L31.072 1.04059C31.0222 0.552584 31.3787 0.11614 31.8676 0.0663617C32.3582 0.0183616 32.7929 0.373028 32.8418 0.861918L33.8631 10.9446C33.9129 11.4326 33.5565 11.8691 33.0676 11.9188C33.0365 11.9215 33.0063 11.9224 32.9769 11.9224Z" fill="black"/>
</svg>
