<svg width="81" height="28" viewBox="0 0 81 28" fill="none" xmlns="http://www.w3.org/2000/svg">
<path d="M67.5774 27.9996C63.8094 27.9996 60.7437 24.9338 60.7437 21.1658C60.7437 17.3978 63.8085 14.332 67.5774 14.332C71.3463 14.332 74.4112 17.3969 74.4112 21.1658C74.4112 24.9347 71.3454 27.9996 67.5774 27.9996ZM67.5774 16.1098C64.7899 16.1098 62.5214 18.3783 62.5214 21.1658C62.5214 23.9543 64.7899 26.2218 67.5774 26.2218C70.3659 26.2218 72.6334 23.9534 72.6334 21.1658C72.6343 18.3783 70.3659 16.1098 67.5774 16.1098Z" fill="black"/>
<path d="M17.8777 27.9996C14.1097 27.9996 11.0439 24.9338 11.0439 21.1658C11.0439 17.3978 14.1097 14.332 17.8777 14.332C21.6457 14.332 24.7115 17.3969 24.7115 21.1658C24.7115 24.9347 21.6457 27.9996 17.8777 27.9996ZM17.8777 16.1098C15.0902 16.1098 12.8217 18.3783 12.8217 21.1658C12.8217 23.9543 15.0902 26.2218 17.8777 26.2218C20.6653 26.2218 22.9337 23.9534 22.9337 21.1658C22.9337 18.3783 20.6653 16.1098 17.8777 16.1098Z" fill="black"/>
<path d="M12.4821 24.5508C12.3977 24.5508 12.3123 24.5383 12.227 24.5134L2.947 21.741C1.70789 21.3703 0.875 20.253 0.875 18.9588V13.2637C0.875 11.6752 1.40122 10.101 2.35678 8.83165L7.23767 2.34721C8.29722 0.940098 9.98078 0.100098 11.7426 0.100098H39.4386C43.1346 0.100098 46.7772 1.08054 49.9728 2.93476L58.107 7.65476L74.0652 11.4388C78.075 12.3908 80.875 15.9321 80.875 20.0521V20.6023C80.875 22.2361 79.6537 23.637 78.035 23.8601L73.0946 24.5428C72.603 24.6157 72.1586 24.269 72.0928 23.7837C72.0252 23.2974 72.3657 22.8485 72.8519 22.7819L77.7923 22.0992C78.5354 21.9961 79.0972 21.3534 79.0972 20.6023V20.0521C79.0972 16.7597 76.859 13.9294 73.6554 13.1694L57.5692 9.35521C57.4839 9.33565 57.403 9.30277 57.3283 9.25921L49.0803 4.47343C46.1559 2.77654 42.8217 1.87965 39.4386 1.87965H11.7426C10.5372 1.87965 9.38344 2.45477 8.65811 3.41832L3.77722 9.90276C3.05189 10.8654 2.65278 12.0592 2.65278 13.2645V18.9597C2.65278 19.461 2.97544 19.8948 3.45633 20.0388L12.7354 22.8112C13.2057 22.9517 13.4732 23.4468 13.3328 23.917C13.2181 24.3019 12.8652 24.5508 12.4821 24.5508Z" fill="black"/>
<path d="M62.1827 24.5507H23.2751C22.7845 24.5507 22.3862 24.1534 22.3862 23.6618C22.3862 23.1703 22.7845 22.7729 23.2751 22.7729H62.1827C62.6742 22.7729 63.0716 23.1703 63.0716 23.6618C63.0716 24.1534 62.6733 24.5507 62.1827 24.5507Z" fill="black"/>
<path d="M50.6518 11.2321H12.0225C11.058 11.2321 10.1976 10.7317 9.72112 9.89254C9.24468 9.05343 9.25535 8.05877 9.74868 7.22943L13.738 0.53521C13.9887 0.112987 14.5345 -0.0247905 14.9567 0.226765C15.3789 0.478321 15.5167 1.02321 15.2651 1.44543L11.2758 8.13965C11.042 8.53165 11.1913 8.88188 11.2669 9.01432C11.3425 9.14588 11.5665 9.45432 12.0233 9.45432H50.6527C52.4233 9.45432 54.146 9.09699 55.77 8.3921L57.4207 7.67565C57.8713 7.4801 58.3958 7.68721 58.5896 8.13788C58.786 8.58765 58.578 9.11121 58.1282 9.30676L56.4776 10.0232C54.6278 10.8259 52.6678 11.2321 50.6518 11.2321Z" fill="black"/>
<path d="M67.5774 22.0596C67.4618 22.0596 67.3463 22.0329 67.2396 21.9885C67.124 21.944 67.0351 21.8818 66.9463 21.7929C66.7774 21.624 66.6885 21.4018 66.6885 21.1707C66.6885 20.9307 66.7854 20.6996 66.9463 20.5396C67.284 20.2018 67.8796 20.2107 68.2085 20.5396C68.244 20.5751 68.2796 20.6196 68.3151 20.6729C68.3507 20.7173 68.3765 20.7698 68.3951 20.824C68.4218 20.8773 68.4396 20.9396 68.4485 20.992C68.4583 21.0462 68.4671 21.1076 68.4671 21.1698C68.4671 21.4009 68.3774 21.6231 68.2094 21.792C68.1196 21.8809 68.0227 21.9431 67.916 21.9876C67.8094 22.032 67.6929 22.0596 67.5774 22.0596Z" fill="black"/>
<path d="M17.8796 22.0595C17.6396 22.0595 17.4174 21.9617 17.2485 21.7928C17.0796 21.6239 16.9907 21.4017 16.9907 21.1617C16.9907 20.9306 17.0796 20.6986 17.2485 20.5395C17.3285 20.4506 17.4263 20.3883 17.5418 20.3439C17.8707 20.2106 18.2618 20.2897 18.5018 20.5395C18.6707 20.6995 18.7685 20.9306 18.7685 21.1617C18.7685 21.4017 18.6707 21.6239 18.5018 21.7928C18.3329 21.9608 18.1107 22.0595 17.8796 22.0595Z" fill="black"/>
<path d="M39.4217 11.2327C39.035 11.2327 38.6794 10.9776 38.5674 10.5873L35.8963 1.23445C35.7612 0.762452 36.035 0.270896 36.507 0.135785C36.9781 -0.00110386 37.4705 0.273563 37.6057 0.746452L40.2768 10.0993C40.4119 10.5713 40.1381 11.0629 39.6661 11.198C39.5843 11.2211 39.5025 11.2327 39.4217 11.2327Z" fill="black"/>
<path d="M19.8253 11.2327C19.7133 11.2327 19.5987 11.2114 19.4884 11.1652C19.0342 10.9785 18.8173 10.4594 19.004 10.0052L22.8475 0.652262C23.0333 0.19804 23.5542 -0.0206266 24.0075 0.167818C24.4618 0.354485 24.6787 0.873596 24.492 1.32782L20.6484 10.6807C20.5071 11.0247 20.1755 11.2327 19.8253 11.2327Z" fill="black"/>
</svg>
