<svg width="81" height="36" viewBox="0 0 81 36" fill="none" xmlns="http://www.w3.org/2000/svg">
<path d="M67.4359 36C63.3674 36 60.0571 32.6897 60.0571 28.6221C60.0571 24.5544 63.3674 21.2441 67.4359 21.2441C71.5036 21.2441 74.8138 24.5544 74.8138 28.6221C74.8138 32.6897 71.5036 36 67.4359 36ZM67.4359 23.022C64.347 23.022 61.8349 25.534 61.8349 28.6221C61.8349 31.7101 64.347 34.2222 67.4359 34.2222C70.524 34.2222 73.036 31.7101 73.036 28.6221C73.036 25.534 70.5231 23.022 67.4359 23.022Z" fill="black"/>
<path d="M16.0972 36C12.0286 36 8.71924 32.6897 8.71924 28.6221C8.71924 24.5544 12.0295 21.2441 16.0972 21.2441C20.1648 21.2441 23.4751 24.5544 23.4751 28.6221C23.4751 32.6897 20.1657 36 16.0972 36ZM16.0972 23.022C13.0091 23.022 10.497 25.534 10.497 28.6221C10.497 31.7101 13.0091 34.2222 16.0972 34.2222C19.1852 34.2222 21.6973 31.7101 21.6973 28.6221C21.6973 25.534 19.1843 23.022 16.0972 23.022Z" fill="black"/>
<path d="M10.2063 32.2345C10.0987 32.2345 9.9894 32.2158 9.88273 32.1741L3.8044 29.798C1.7208 28.9847 0.375 27.0131 0.375 24.7766V16.9311C0.375 15.9595 0.637227 15.0057 1.13501 14.171L7.60536 3.30685C8.50493 1.79571 10.1565 0.85791 11.9148 0.85791H46.9528C48.7715 0.85791 50.5084 1.6357 51.72 2.99128L57.1618 9.0794L74.2235 10.5728C76.9187 10.8083 79.0805 12.9328 79.3623 15.6235L80.3392 24.9348C80.6983 28.3553 78.3196 31.4558 74.9213 31.9927L73.4608 32.2238C72.9781 32.2958 72.5212 31.9687 72.4439 31.4834C72.3675 30.9989 72.699 30.5438 73.1844 30.4665L74.644 30.2362C77.1062 29.8469 78.8316 27.5989 78.5711 25.1197L77.5942 15.8084C77.3996 13.9622 75.9169 12.5052 74.0679 12.3435L56.6578 10.8199C56.4321 10.8003 56.2232 10.6954 56.0729 10.5265L50.3955 4.17531C49.5208 3.19573 48.2657 2.63483 46.9537 2.63483H11.9148C10.7796 2.63483 9.71295 3.24107 9.13339 4.2162L2.66215 15.0804C2.32881 15.6404 2.15281 16.2804 2.15281 16.9311V24.7766C2.15281 26.2762 3.05505 27.5971 4.45152 28.142L10.5307 30.518C10.9876 30.6967 11.2134 31.2123 11.0348 31.67C10.8979 32.0203 10.5619 32.2345 10.2063 32.2345Z" fill="black"/>
<path d="M61.5461 32.2344H21.988C21.4974 32.2344 21.0991 31.837 21.0991 31.3454C21.0991 30.8539 21.4974 30.4565 21.988 30.4565H61.5461C62.0377 30.4565 62.435 30.8539 62.435 31.3454C62.435 31.837 62.0368 32.2344 61.5461 32.2344Z" fill="black"/>
<path d="M50.3376 14.7852H10.0017C9.69328 14.7852 9.40794 14.6252 9.24527 14.363C9.0826 14.1008 9.06838 13.7737 9.20705 13.4981L15.2907 1.34853C15.5112 0.909411 16.0454 0.731631 16.4836 0.95208C16.9228 1.17164 17.1005 1.70587 16.8801 2.14499L11.4409 13.0074H50.3376C51.247 13.0074 52.1305 12.683 52.823 12.0945L56.159 9.25801C56.5306 8.94067 57.0942 8.98423 57.4115 9.35935C57.7289 9.73358 57.6844 10.2945 57.3102 10.6127L53.9741 13.4492C52.9599 14.3106 51.6683 14.7852 50.3376 14.7852Z" fill="black"/>
<path d="M67.4338 29.5135C67.1938 29.5135 66.9716 29.4157 66.8027 29.2468C66.6427 29.0779 66.5449 28.8557 66.5449 28.6246C66.5449 28.5001 66.5716 28.3934 66.616 28.2779C66.6605 28.1712 66.7227 28.0734 66.8027 27.9934C66.848 27.949 66.8925 27.9134 66.9449 27.8868C66.9894 27.8512 67.0427 27.8245 67.096 27.7979C67.1503 27.7792 67.2027 27.7623 67.2649 27.7534C67.5485 27.6912 67.8605 27.789 68.0641 27.9934C68.145 28.0734 68.2063 28.1712 68.2507 28.2779C68.2961 28.3934 68.3218 28.5001 68.3218 28.6246C68.3218 28.8557 68.233 29.0779 68.0641 29.2468C67.9752 29.3357 67.8774 29.3979 67.7707 29.4423C67.6649 29.4868 67.5494 29.5135 67.4338 29.5135Z" fill="black"/>
<path d="M16.0998 29.5133C15.8598 29.5133 15.6376 29.4155 15.4687 29.2466C15.2998 29.0866 15.2109 28.8555 15.2109 28.6244C15.2109 28.4999 15.2287 28.3933 15.2732 28.2777C15.3176 28.171 15.3887 28.0733 15.4687 27.9933C15.7976 27.6644 16.3932 27.6644 16.7221 27.9933C16.891 28.1533 16.9887 28.3844 16.9887 28.6244C16.9887 28.8555 16.891 29.0777 16.7221 29.2466C16.6421 29.3355 16.5443 29.3977 16.4376 29.4422C16.331 29.4866 16.2154 29.5133 16.0998 29.5133Z" fill="black"/>
<path d="M38.6424 14.7851C38.2406 14.7851 37.8771 14.5113 37.7793 14.1033L34.8637 1.95374C34.749 1.47729 35.0424 0.99728 35.5206 0.882611C36.0006 0.76972 36.4779 1.06217 36.5926 1.53951L39.5082 13.6891C39.6229 14.1664 39.3287 14.6464 38.8513 14.7611C38.7811 14.778 38.7109 14.7851 38.6424 14.7851Z" fill="black"/>
<path d="M20.1636 14.786C20.0676 14.786 19.9699 14.77 19.873 14.7371C19.409 14.5771 19.1627 14.0704 19.3227 13.6064L23.5184 1.45687C23.6784 0.993746 24.1833 0.746631 24.6491 0.906634C25.1131 1.06664 25.3593 1.57331 25.1993 2.03732L21.0037 14.1869C20.8765 14.5549 20.5325 14.786 20.1636 14.786Z" fill="black"/>
</svg>
