<svg width="81" height="30" viewBox="0 0 81 30" fill="none" xmlns="http://www.w3.org/2000/svg">
<path d="M64.9345 30C60.9753 30 57.7549 26.7796 57.7549 22.8205C57.7549 18.8613 60.9753 15.6409 64.9345 15.6409C68.8936 15.6409 72.1141 18.8613 72.1141 22.8205C72.1141 26.7796 68.8936 30 64.9345 30ZM64.9345 17.4178C61.9558 17.4178 59.5327 19.8418 59.5327 22.8196C59.5327 25.7974 61.9567 28.2214 64.9345 28.2214C67.9123 28.2214 70.3363 25.7974 70.3363 22.8196C70.3363 19.8418 67.9123 17.4178 64.9345 17.4178Z" fill="black"/>
<path d="M16.0546 30C12.0955 30 8.875 26.7796 8.875 22.8205C8.875 18.8613 12.0955 15.6409 16.0546 15.6409C20.0137 15.6409 23.2342 18.8613 23.2342 22.8205C23.2342 26.7796 20.0137 30 16.0546 30ZM16.0546 17.4178C13.0759 17.4178 10.6528 19.8418 10.6528 22.8196C10.6528 25.7974 13.0759 28.2214 16.0546 28.2214C19.0333 28.2214 21.4564 25.7974 21.4564 22.8196C21.4564 19.8418 19.0333 17.4178 16.0546 17.4178Z" fill="black"/>
<path d="M10.3453 26.3504C10.2449 26.3504 10.1417 26.3327 10.0422 26.2962L2.6226 23.6011C1.11948 23.0562 0.236812 21.4651 0.570147 19.9006L2.2946 11.8046C2.63682 10.201 3.95416 8.95124 5.57284 8.69346L12.9871 7.51568C13.4706 7.44012 13.9275 7.76902 14.0049 8.25435C14.0813 8.7388 13.7507 9.1948 13.2662 9.27213L5.85017 10.4499C4.95239 10.5921 4.22172 11.2855 4.03239 12.1753L2.30793 20.2704C2.1586 20.9717 2.55416 21.6855 3.22883 21.93L10.6484 24.626C11.1098 24.7931 11.348 25.3033 11.1809 25.7647C11.0493 26.1264 10.708 26.3504 10.3453 26.3504Z" fill="black"/>
<path d="M70.6428 26.3502C70.1948 26.3502 69.809 26.0124 69.7601 25.5573C69.7068 25.0684 70.0597 24.6302 70.5477 24.5769L77.0668 23.8684C77.5833 23.8124 78.0393 23.5538 78.3504 23.1386C78.6624 22.7244 78.7842 22.2142 78.6944 21.704C77.8606 16.952 74.0899 13.311 69.3121 12.6435L52.4267 10.287C52.2534 10.263 52.0907 10.1875 51.96 10.071C48.5831 7.07013 44.0711 4.45501 38.5475 2.29766C38.0898 2.119 37.864 1.60344 38.0426 1.14655C38.2213 0.689658 38.7351 0.464769 39.1938 0.641658C44.8045 2.83367 49.4258 5.49768 52.9369 8.56347L69.5592 10.8835C75.1033 11.6577 79.4784 15.8826 80.4464 21.3964C80.6188 22.3822 80.3735 23.4071 79.7717 24.2071C79.1699 25.0071 78.2544 25.528 77.2588 25.6355L70.7406 26.344C70.7068 26.3484 70.6748 26.3502 70.6428 26.3502Z" fill="black"/>
<path d="M59.2247 26.3505H21.7658C21.2752 26.3505 20.877 25.9532 20.877 25.4616C20.877 24.9701 21.2752 24.5728 21.7658 24.5728H59.2247C59.7162 24.5728 60.1136 24.9701 60.1136 25.4616C60.1136 25.9532 59.7154 26.3505 59.2247 26.3505Z" fill="black"/>
<path d="M44.3322 12.1397C44.142 12.1397 43.9518 12.137 43.7615 12.1317L26.3117 11.4543C24.5375 11.4028 22.7463 11.201 20.9979 10.8552L12.9534 9.26589C12.4716 9.17077 12.1587 8.70322 12.2538 8.22144C12.349 7.74055 12.8165 7.42677 13.2983 7.52188L21.3428 9.11122C22.9952 9.43744 24.6877 9.62856 26.3721 9.67744L43.8229 10.3548C46.4549 10.4294 49.1438 9.91567 51.5722 8.86144L52.1954 8.59122C52.6434 8.39566 53.1687 8.60277 53.3634 9.05344C53.5589 9.50411 53.3518 10.0277 52.9011 10.2223L52.2789 10.4926C49.7882 11.5743 47.0522 12.1397 44.3322 12.1397Z" fill="black"/>
<path d="M64.9358 23.7087C64.6949 23.7087 64.4727 23.6198 64.3047 23.4509C64.1358 23.2829 64.0469 23.0607 64.0469 22.8198C64.0469 22.7042 64.0647 22.5887 64.1082 22.482C64.1527 22.3753 64.2238 22.2776 64.3047 22.1887C64.3847 22.1087 64.4815 22.0465 64.5882 22.002C64.926 21.8598 65.3171 21.9398 65.5571 22.1887C65.6469 22.2776 65.7082 22.3753 65.7536 22.482C65.798 22.5887 65.8247 22.7042 65.8247 22.8198C65.8247 23.0607 65.7269 23.2829 65.5571 23.4509C65.4771 23.5309 65.3802 23.5931 65.2736 23.6376C65.166 23.6811 65.0504 23.7087 64.9358 23.7087Z" fill="black"/>
<path d="M16.0539 23.7083C15.8139 23.7083 15.5917 23.6194 15.4228 23.4505C15.3428 23.3617 15.2806 23.2639 15.2362 23.1572C15.1917 23.0505 15.165 22.935 15.165 22.8194C15.165 22.7039 15.1917 22.5883 15.2362 22.4817C15.2806 22.375 15.3428 22.2683 15.4228 22.1883C15.7606 21.8594 16.3473 21.8594 16.685 22.1883C16.845 22.3572 16.9428 22.5883 16.9428 22.8194C16.9428 22.935 16.925 23.0505 16.8806 23.1572C16.8362 23.2639 16.765 23.3617 16.685 23.4505C16.5162 23.6194 16.2939 23.7083 16.0539 23.7083Z" fill="black"/>
<path d="M34.8488 11.7287C34.4914 11.7287 34.1545 11.511 34.0185 11.1572L32.3679 6.84517C32.1927 6.3865 32.4221 5.87272 32.8808 5.69672C33.3385 5.52161 33.8532 5.75094 34.0292 6.20961L35.6799 10.5216C35.855 10.9803 35.6257 11.4941 35.167 11.6701C35.0621 11.7092 34.9545 11.7287 34.8488 11.7287Z" fill="black"/>
<path d="M23.3045 11.2178C22.9383 11.2178 22.596 10.9902 22.4672 10.6258L21.1854 7.01155C21.0209 6.54844 21.2627 6.04088 21.7258 5.87643C22.1889 5.71199 22.6965 5.95465 22.8609 6.41688L24.1427 10.0311C24.3072 10.4942 24.0654 11.0018 23.6023 11.1662C23.5027 11.2009 23.4023 11.2178 23.3045 11.2178Z" fill="black"/>
</svg>
