<svg width="21" height="20" viewBox="0 0 21 20" fill="none" xmlns="http://www.w3.org/2000/svg">
<g clip-path="url(#clip0_11_67)">
<path d="M5.6145 4.58594L4.59497 7.5H16.0715L15.052 4.58594C14.8762 4.08594 14.4036 3.75 13.8723 3.75H6.79419C6.26294 3.75 5.79028 4.08594 5.6145 4.58594ZM1.88013 7.6875L3.25513 3.76172C3.78247 2.25781 5.20044 1.25 6.79419 1.25H13.8723C15.4661 1.25 16.884 2.25781 17.4114 3.76172L18.7864 7.6875C19.6926 8.0625 20.3333 8.95703 20.3333 10V15.625V17.5C20.3333 18.1914 19.7747 18.75 19.0833 18.75H17.8333C17.1418 18.75 16.5833 18.1914 16.5833 17.5V15.625H4.08325V17.5C4.08325 18.1914 3.52466 18.75 2.83325 18.75H1.58325C0.891846 18.75 0.333252 18.1914 0.333252 17.5V15.625V10C0.333252 8.95703 0.973877 8.0625 1.88013 7.6875ZM5.33325 11.25C5.33325 10.9185 5.20156 10.6005 4.96714 10.3661C4.73272 10.1317 4.41477 10 4.08325 10C3.75173 10 3.43379 10.1317 3.19937 10.3661C2.96495 10.6005 2.83325 10.9185 2.83325 11.25C2.83325 11.5815 2.96495 11.8995 3.19937 12.1339C3.43379 12.3683 3.75173 12.5 4.08325 12.5C4.41477 12.5 4.73272 12.3683 4.96714 12.1339C5.20156 11.8995 5.33325 11.5815 5.33325 11.25ZM16.5833 12.5C16.9148 12.5 17.2327 12.3683 17.4671 12.1339C17.7016 11.8995 17.8333 11.5815 17.8333 11.25C17.8333 10.9185 17.7016 10.6005 17.4671 10.3661C17.2327 10.1317 16.9148 10 16.5833 10C16.2517 10 15.9338 10.1317 15.6994 10.3661C15.4649 10.6005 15.3333 10.9185 15.3333 11.25C15.3333 11.5815 15.4649 11.8995 15.6994 12.1339C15.9338 12.3683 16.2517 12.5 16.5833 12.5Z" fill="white"/>
</g>
<defs>
<clipPath id="clip0_11_67">
<rect width="20" height="20" fill="white" transform="translate(0.333252)"/>
</clipPath>
</defs>
</svg>
