<svg width="81" height="30" viewBox="0 0 81 30" fill="none" xmlns="http://www.w3.org/2000/svg">
<path d="M67.5614 30.0001C63.6245 30.0001 60.4219 26.7966 60.4219 22.8597C60.4219 18.9228 63.6254 15.7192 67.5614 15.7192C71.4992 15.7192 74.7019 18.9228 74.7019 22.8597C74.7019 26.7966 71.4992 30.0001 67.5614 30.0001ZM67.5614 17.497C64.605 17.497 62.1997 19.9023 62.1997 22.8597C62.1997 25.817 64.605 28.2223 67.5614 28.2223C70.5188 28.2223 72.9241 25.817 72.9241 22.8597C72.9241 19.9023 70.5188 17.497 67.5614 17.497Z" fill="black"/>
<path d="M16.0618 30.0001C12.124 30.0001 8.92139 26.7966 8.92139 22.8597C8.92139 18.9228 12.1249 15.7192 16.0618 15.7192C19.9987 15.7192 23.2023 18.9228 23.2023 22.8597C23.2023 26.7966 19.9987 30.0001 16.0618 30.0001ZM16.0618 17.497C13.1045 17.497 10.6992 19.9023 10.6992 22.8597C10.6992 25.817 13.1054 28.2223 16.0618 28.2223C19.0183 28.2223 21.4245 25.817 21.4245 22.8597C21.4245 19.9023 19.0183 17.497 16.0618 17.497Z" fill="black"/>
<path d="M10.3872 26.3734C10.2867 26.3734 10.1836 26.3557 10.0841 26.3192L3.13831 23.7965C1.37831 23.1574 0.305423 21.4126 0.529422 19.5539L1.44053 11.9894C1.70453 9.7939 3.5712 8.1379 5.78364 8.1379H7.79697C8.79341 8.1379 9.74541 7.76545 10.477 7.08901C14.8983 3.00368 20.6485 0.753906 26.6681 0.753906H36.1783C41.7285 0.753906 47.1987 2.22591 51.9987 5.01168L58.356 8.70056L71.6369 12.1068C76.8556 13.4446 80.5 18.1406 80.5 23.5281C80.5 24.5112 79.7951 25.3379 78.8236 25.4925L73.3747 26.3628C72.892 26.4445 72.4333 26.1094 72.3569 25.625C72.2796 25.1405 72.6093 24.6845 73.0947 24.6072L78.5436 23.737C78.6467 23.7201 78.7213 23.633 78.7213 23.5281C78.7213 18.9539 75.6271 14.9646 71.1951 13.8286L57.7942 10.3921C57.7151 10.3717 57.6387 10.3406 57.5685 10.2997L51.1054 6.54946C46.5765 3.92101 41.4147 2.53257 36.1774 2.53257H26.6681C21.0965 2.53257 15.7756 4.61524 11.6832 8.39568C10.6219 9.37701 9.24141 9.91656 7.79608 9.91656H5.78364C4.46986 9.91656 3.36142 10.8997 3.20497 12.2028L2.29386 19.7663C2.16942 20.801 2.76586 21.7717 3.74453 22.1272L10.6903 24.6499C11.1516 24.817 11.3899 25.3272 11.2227 25.7885C11.0921 26.1494 10.7507 26.3734 10.3872 26.3734Z" fill="black"/>
<path d="M61.8886 26.3735H21.7375C21.2469 26.3735 20.8486 25.9761 20.8486 25.4846C20.8486 24.993 21.2469 24.5957 21.7375 24.5957H61.8886C62.3801 24.5957 62.7775 24.993 62.7775 25.4846C62.7775 25.9761 62.3792 26.3735 61.8886 26.3735Z" fill="black"/>
<path d="M50.7127 12.3672H24.2594C22.3527 12.3672 20.6238 11.4774 19.5154 9.92627C18.4069 8.37516 18.126 6.45161 18.7438 4.64805L19.574 2.22406C19.7332 1.75917 20.238 1.51117 20.7029 1.67117C21.1669 1.83028 21.4149 2.33606 21.2558 2.80006L20.4256 5.22405C19.9963 6.47738 20.1918 7.81516 20.9625 8.89249C21.7332 9.97072 22.9349 10.5894 24.2603 10.5894H50.7136C52.4585 10.5894 54.1544 10.2374 55.7544 9.54316L57.662 8.7156C58.1127 8.52094 58.6371 8.72716 58.8309 9.17783C59.0264 9.62849 58.8193 10.152 58.3696 10.3467L56.462 11.1743C54.6371 11.9654 52.7038 12.3672 50.7127 12.3672Z" fill="black"/>
<path d="M37.4339 12.6123C37.0873 12.6123 36.7584 12.4088 36.6153 12.0701L32.4455 2.23546C32.2544 1.7839 32.4651 1.26212 32.9175 1.07012C33.3673 0.879903 33.8917 1.08968 34.0828 1.54212L38.2526 11.3768C38.4437 11.8283 38.233 12.3501 37.7806 12.5421C37.6677 12.5892 37.5495 12.6123 37.4339 12.6123Z" fill="black"/>
<path d="M67.5569 23.7504C67.4413 23.7504 67.3257 23.7238 67.2191 23.6793C67.1124 23.6349 67.0155 23.5727 66.9355 23.4838C66.8457 23.4038 66.7835 23.306 66.7391 23.1993C66.6946 23.0927 66.668 22.9771 66.668 22.8616C66.668 22.6207 66.7657 22.3985 66.9355 22.2305C67.1391 22.026 67.4413 21.9282 67.7346 21.9896C67.7889 21.9993 67.8502 22.0162 67.9035 22.0349C68.0102 22.0793 68.1071 22.1505 68.1871 22.2305C68.356 22.3985 68.4449 22.6207 68.4449 22.8616C68.4449 22.9771 68.4271 23.0927 68.3835 23.1993C68.3382 23.306 68.2769 23.4038 68.1871 23.4838C68.1071 23.5727 68.0102 23.6349 67.9035 23.6793C67.7969 23.7238 67.6822 23.7504 67.5569 23.7504Z" fill="black"/>
<path d="M16.0647 23.7504C15.8247 23.7504 15.6024 23.6526 15.4336 23.4837C15.2647 23.3228 15.1758 23.0926 15.1758 22.8615C15.1758 22.6206 15.2647 22.3984 15.4336 22.2304C15.5136 22.1504 15.6113 22.0882 15.718 22.0348C16.0558 21.9015 16.4469 21.9806 16.6869 22.2304C16.8558 22.3984 16.9536 22.6206 16.9536 22.8615C16.9536 23.1015 16.8558 23.3237 16.6869 23.4837C16.518 23.6526 16.2958 23.7504 16.0647 23.7504Z" fill="black"/>
</svg>
