<svg width="2048" height="1809" viewBox="0 0 2048 1809" fill="none" xmlns="http://www.w3.org/2000/svg">
<line x1="406.045" y1="1224.73" x2="1642.12" y2="1224.73" stroke="#2563EB" stroke-width="109.194"/>
<path d="M706.623 1096.86C646.528 1096.86 592.949 1083.83 545.887 1057.76C499.549 1031.7 462.623 996.22 435.11 951.329C408.32 906.439 394.926 855.033 394.926 797.11C394.926 739.187 408.32 687.781 435.11 642.89C462.623 598 499.549 562.522 545.887 536.457C592.949 510.392 646.528 497.359 706.623 497.359C766.718 497.359 819.935 510.392 866.273 536.457C913.335 562.522 950.261 598 977.05 642.89C1003.84 687.781 1017.23 739.187 1017.23 797.11C1017.23 855.033 1003.84 906.439 977.05 951.329C950.261 996.22 913.335 1031.7 866.273 1057.76C819.935 1083.83 766.718 1096.86 706.623 1096.86ZM706.623 946.985C732.688 946.985 755.857 940.469 776.13 927.436C796.403 914.404 812.332 896.665 823.917 874.22C835.501 851.775 840.932 826.071 840.208 797.11C840.932 768.149 835.501 742.445 823.917 720C812.332 696.831 796.403 678.73 776.13 665.698C755.857 652.665 732.688 646.149 706.623 646.149C680.558 646.149 657.027 652.665 636.03 665.698C615.757 678.73 599.828 696.831 588.243 720C576.659 742.445 571.228 768.149 571.952 797.11C571.228 826.071 576.659 851.775 588.243 874.22C599.828 896.665 615.757 914.404 636.03 927.436C657.027 940.469 680.558 946.985 706.623 946.985ZM1098.28 1086L1098.28 509.306L1263.36 509.306L1268.79 626.6L1234.04 639.632C1242 613.567 1256.12 590.036 1276.39 569.039C1297.39 547.318 1322.37 529.941 1351.33 516.908C1380.29 503.876 1410.7 497.359 1442.56 497.359C1486 497.359 1522.57 506.41 1552.25 524.511C1581.94 541.887 1604.38 568.315 1619.59 603.792C1634.79 638.546 1642.39 681.264 1642.39 731.947V1086H1467.54V746.065C1467.54 722.896 1464.28 703.709 1457.76 688.505C1451.25 673.3 1441.11 662.077 1427.35 654.837C1414.32 646.873 1398.03 643.252 1378.48 643.976C1363.28 643.976 1349.16 646.511 1336.13 651.579C1323.09 655.923 1311.87 662.801 1302.46 672.214C1293.05 680.902 1285.44 691.039 1279.65 702.623C1274.58 714.208 1272.05 726.879 1272.05 740.635L1272.05 1086H1186.25C1165.98 1086 1148.6 1086 1134.12 1086C1119.64 1086 1107.69 1086 1098.28 1086Z" fill="#2563EB"/>
</svg>
