<svg width="20" height="21" viewBox="0 0 20 21" fill="none" xmlns="http://www.w3.org/2000/svg">
<path d="M20 17.5C19.9974 17.6981 19.9176 17.8874 19.7775 18.0275C19.6374 18.1676 19.4481 18.2474 19.25 18.25H16V19.5C16 19.6989 15.921 19.8897 15.7803 20.0303C15.6397 20.171 15.4489 20.25 15.25 20.25C15.0511 20.25 14.8603 20.171 14.7197 20.0303C14.579 19.8897 14.5 19.6989 14.5 19.5V18.25H1.25C1.05109 18.25 0.860322 18.171 0.71967 18.0303C0.579018 17.8897 0.5 17.6989 0.5 17.5C0.5 17.3011 0.579018 17.1103 0.71967 16.9697C0.860322 16.829 1.05109 16.75 1.25 16.75H14.5V15.5C14.5 15.3011 14.579 15.1103 14.7197 14.9697C14.8603 14.829 15.0511 14.75 15.25 14.75C15.4489 14.75 15.6397 14.829 15.7803 14.9697C15.921 15.1103 16 15.3011 16 15.5V16.75H19.25C19.4481 16.7526 19.6374 16.8324 19.7775 16.9725C19.9176 17.1126 19.9974 17.3019 20 17.5ZM19.25 9.75H6V8.5C6 8.30109 5.92098 8.11032 5.78033 7.96967C5.63968 7.82902 5.44891 7.75 5.25 7.75C5.05109 7.75 4.86032 7.82902 4.71967 7.96967C4.57902 8.11032 4.5 8.30109 4.5 8.5V9.75H1.25C1.05109 9.75 0.860322 9.82902 0.71967 9.96967C0.579018 10.1103 0.5 10.3011 0.5 10.5C0.5 10.6989 0.579018 10.8897 0.71967 11.0303C0.860322 11.171 1.05109 11.25 1.25 11.25H4.5V12.5C4.5 12.6989 4.57902 12.8897 4.71967 13.0303C4.86032 13.171 5.05109 13.25 5.25 13.25C5.44891 13.25 5.63968 13.171 5.78033 13.0303C5.92098 12.8897 6 12.6989 6 12.5V11.25H19.25C19.4489 11.25 19.6397 11.171 19.7803 11.0303C19.921 10.8897 20 10.6989 20 10.5C20 10.3011 19.921 10.1103 19.7803 9.96967C19.6397 9.82902 19.4489 9.75 19.25 9.75ZM1.25 4.25H14.5V5.5C14.5 5.69891 14.579 5.88968 14.7197 6.03033C14.8603 6.17098 15.0511 6.25 15.25 6.25C15.4489 6.25 15.6397 6.17098 15.7803 6.03033C15.921 5.88968 16 5.69891 16 5.5V4.25H19.25C19.4489 4.25 19.6397 4.17098 19.7803 4.03033C19.921 3.88968 20 3.69891 20 3.5C20 3.30109 19.921 3.11032 19.7803 2.96967C19.6397 2.82902 19.4489 2.75 19.25 2.75H16V1.5C16 1.30109 15.921 1.11032 15.7803 0.96967C15.6397 0.829018 15.4489 0.75 15.25 0.75C15.0511 0.75 14.8603 0.829018 14.7197 0.96967C14.579 1.11032 14.5 1.30109 14.5 1.5V2.75H1.25C1.05109 2.75 0.860322 2.82902 0.71967 2.96967C0.579018 3.11032 0.5 3.30109 0.5 3.5C0.5 3.69891 0.579018 3.88968 0.71967 4.03033C0.860322 4.17098 1.05109 4.25 1.25 4.25Z" fill="white"/>
</svg>
