<svg width="36" height="37" viewBox="0 0 36 37" fill="none" xmlns="http://www.w3.org/2000/svg">
<path fill-rule="evenodd" clip-rule="evenodd" d="M14.625 2.89795L16.374 4.06397C20.8443 7.04417 23.2569 11.4332 23.586 17.1271L23.5868 17.1489L23.6225 17.1323C24.3528 16.7376 24.7131 15.8373 24.7473 14.2555L24.75 14V11.284L26.6705 13.2045C28.4215 14.9555 29.25 17.8553 29.25 21.875C29.25 28.5236 25.0034 33.125 18.0029 33.125C11.0021 33.125 6.75 28.521 6.75 21.875C6.75 18.4493 7.8174 16.4937 10.5539 13.5586L11.2622 12.7974L11.7699 12.2297C13.8658 9.82393 14.625 8.07751 14.625 5.00003V2.89795ZM16.992 7.39857L16.7378 7.16903L16.7261 7.26823C16.322 10.0559 15.0685 12.0196 12.6344 14.6275L11.9305 15.3843C9.75324 17.7676 9 19.2486 9 21.875C9 27.3165 12.2864 30.875 18.0029 30.875C23.7186 30.875 27 27.3195 27 21.875C27 20.0653 26.8184 18.5611 26.4685 17.3584L26.4195 17.2007L26.367 17.32C25.6892 18.7424 24.4733 19.5496 22.7497 19.62L22.5 19.625H21.375V18.5C21.375 13.7789 19.9203 10.104 16.992 7.39857Z" fill="url(#paint0_linear_59_1560)"/>
<path d="M14.6901 30.9057C11.3802 23.0614 16.8749 18.5 16.8749 18.5C16.8749 18.5 16.8749 28.625 22.4999 25.25C22.4999 25.25 22.4999 30.7625 19.1249 31.8875" fill="url(#paint1_linear_59_1560)"/>
<defs>
<linearGradient id="paint0_linear_59_1560" x1="-4.5" y1="18.0115" x2="24.456" y2="39.5654" gradientUnits="userSpaceOnUse">
<stop stop-color="#A300FF"/>
<stop offset="0.511423" stop-color="#2C00FF"/>
<stop offset="1" stop-color="#00AFFF"/>
</linearGradient>
<linearGradient id="paint1_linear_59_1560" x1="8.91875" y1="25.1937" x2="21.3438" y2="33.5969" gradientUnits="userSpaceOnUse">
<stop stop-color="#A300FF"/>
<stop offset="0.511423" stop-color="#2C00FF"/>
<stop offset="1" stop-color="#00AFFF"/>
</linearGradient>
</defs>
</svg>
