<svg width="81" height="30" viewBox="0 0 81 30" fill="none" xmlns="http://www.w3.org/2000/svg">
<path d="M64.1855 29.9999C60.1615 29.9999 56.8877 26.7261 56.8877 22.7021C56.8877 18.6781 60.1615 15.4043 64.1855 15.4043C68.2095 15.4043 71.4833 18.6781 71.4833 22.7021C71.4833 26.7261 68.2095 29.9999 64.1855 29.9999ZM64.1855 17.1821C61.1419 17.1821 58.6655 19.6585 58.6655 22.7021C58.6655 25.7457 61.1419 28.2221 64.1855 28.2221C67.2291 28.2221 69.7055 25.7457 69.7055 22.7021C69.7055 19.6585 67.2282 17.1821 64.1855 17.1821Z" fill="black"/>
<path d="M15.8819 29.9999C11.8579 29.9999 8.58496 26.7261 8.58496 22.7021C8.58496 18.6781 11.8587 15.4043 15.8819 15.4043C19.905 15.4043 23.1797 18.6781 23.1797 22.7021C23.1797 26.7261 19.9059 29.9999 15.8819 29.9999ZM15.8819 17.1821C12.8383 17.1821 10.3627 19.6585 10.3627 22.7021C10.3627 25.7457 12.8392 28.2221 15.8819 28.2221C18.9254 28.2221 21.4019 25.7457 21.4019 22.7021C21.4019 19.6585 18.9254 17.1821 15.8819 17.1821Z" fill="black"/>
<path d="M10.066 26.2819C9.99582 26.2819 9.9256 26.2739 9.85448 26.257L3.57713 24.7272C1.65357 24.2588 0.36468 22.4863 0.511348 20.5121L1.07846 12.8623C1.18335 11.4445 1.70424 10.1067 2.58424 8.99295L5.61181 5.15738C8.16826 1.91915 12.0012 0.0622559 16.1265 0.0622559H37.2821C39.6395 0.0622559 41.9648 0.688035 44.0048 1.87204L54.9124 8.20095L75.6253 12.8996C78.4947 13.5503 80.5 16.0605 80.5 19.0045V21.7405C80.5 23.6837 79.0431 25.3059 77.1115 25.5148L70.0973 26.2765C69.6049 26.3299 69.1702 25.977 69.1169 25.489C69.0635 25.0001 69.4164 24.5619 69.9044 24.5085L76.9195 23.7468C77.948 23.6365 78.7222 22.7734 78.7222 21.7405V19.0045C78.7222 16.897 77.2867 15.0996 75.2315 14.6339L54.3862 9.90495C54.2982 9.88539 54.2155 9.85162 54.1373 9.80717L43.1132 3.40982C41.3435 2.38315 39.3274 1.84093 37.2821 1.84093H16.1256C12.5478 1.84093 9.22426 3.4516 7.00648 6.26049L3.97891 10.0961C3.32024 10.9307 2.93002 11.9325 2.85091 12.9947L2.2838 20.6445C2.20202 21.7476 2.92291 22.7379 3.99847 23.0001L10.2758 24.5299C10.7532 24.6463 11.0456 25.1272 10.9292 25.6037C10.8296 26.0099 10.466 26.2819 10.066 26.2819Z" fill="black"/>
<path d="M58.3694 26.2817H21.6999C21.2093 26.2817 20.811 25.8844 20.811 25.3928C20.811 24.9012 21.2093 24.5039 21.6999 24.5039H58.3685C58.86 24.5039 59.2574 24.9012 59.2574 25.3928C59.2574 25.8844 58.86 26.2817 58.3694 26.2817Z" fill="black"/>
<path d="M46.0571 11.9226H18.3957C16.7513 11.9226 15.2082 11.1181 14.2668 9.76966C13.3255 8.4221 13.1024 6.69587 13.6695 5.15276L15.3237 0.644301C15.4926 0.182966 16.0037 -0.0517008 16.4651 0.1163C16.9264 0.285189 17.162 0.7963 16.9931 1.25763L15.3379 5.76609C14.9655 6.77943 15.1068 7.86743 15.7246 8.75277C16.3424 9.6381 17.3166 10.1448 18.3957 10.1448H46.0571C48.5389 10.1448 50.9523 9.64432 53.2278 8.65588L54.2287 8.22121C54.6812 8.02565 55.2029 8.23277 55.3976 8.68343C55.5941 9.13321 55.3869 9.65677 54.9363 9.85232L53.9354 10.287C51.4349 11.3723 48.7834 11.9226 46.0571 11.9226Z" fill="black"/>
<path d="M64.1878 23.5909C64.0634 23.5909 63.9478 23.5642 63.8412 23.5198C63.7345 23.4753 63.6376 23.4131 63.5567 23.3331C63.3887 23.1642 63.29 22.942 63.29 22.702C63.29 22.4709 63.3878 22.2389 63.5567 22.0709C63.8767 21.742 64.4812 21.742 64.81 22.0709C64.9789 22.2389 65.0678 22.4611 65.0678 22.702C65.0678 22.942 64.9789 23.1642 64.81 23.3331C64.73 23.4131 64.6323 23.4753 64.5265 23.5198C64.4198 23.5642 64.3043 23.5909 64.1878 23.5909Z" fill="black"/>
<path d="M15.8776 23.591C15.762 23.591 15.6464 23.5643 15.5398 23.5199C15.4331 23.4754 15.3353 23.4132 15.2553 23.3332C15.0864 23.1643 14.9976 22.9421 14.9976 22.7021C14.9976 22.5866 15.0153 22.471 15.0598 22.3643C15.1042 22.2488 15.1753 22.1599 15.2553 22.071C15.4953 21.8221 15.8953 21.7421 16.2242 21.8843C16.3309 21.9288 16.4287 21.991 16.5087 22.071C16.6776 22.239 16.7753 22.471 16.7753 22.7021C16.7753 22.9421 16.6776 23.1643 16.5087 23.3332C16.3398 23.5021 16.1176 23.591 15.8776 23.591Z" fill="black"/>
<path d="M32.6019 11.9226C32.1512 11.9226 31.7646 11.5813 31.7184 11.1235L30.697 1.04083C30.6472 0.552828 31.0037 0.116384 31.4926 0.0666059C31.9832 0.0186058 32.4179 0.373272 32.4668 0.862162L33.4881 10.9449C33.5379 11.4329 33.1815 11.8693 32.6926 11.9191C32.6615 11.9217 32.6313 11.9226 32.6019 11.9226Z" fill="black"/>
</svg>
