<svg width="4257" height="784" viewBox="0 0 4257 784" fill="none" xmlns="http://www.w3.org/2000/svg">
<path d="M0.015743 772V0.283871H187.433V606.632H531.397V772H0.015743ZM877.395 783.025C812.718 783.025 756.493 770.163 708.72 744.439C660.947 717.98 623.831 682.334 597.372 637.501C570.913 591.933 557.684 540.118 557.684 482.055C557.684 437.222 565.034 396.064 579.733 358.581C594.432 321.097 615.011 288.759 641.47 261.565C667.929 233.636 699.165 212.322 735.179 197.623C771.927 182.188 811.983 174.471 855.346 174.471C896.504 174.471 933.987 181.821 967.796 196.52C1002.34 211.22 1032.11 231.799 1057.09 258.258C1082.08 284.716 1101.19 315.953 1114.42 351.966C1127.65 387.979 1133.53 427.3 1132.06 469.928L1130.96 517.334H664.622L639.265 418.113H987.64L968.898 439.06V417.011C967.428 398.636 961.549 382.467 951.259 368.503C941.705 353.803 928.843 342.411 912.673 334.327C896.504 326.242 878.13 322.2 857.551 322.2C828.887 322.2 804.266 328.079 783.687 339.839C763.842 350.864 748.776 367.4 738.486 389.449C728.196 410.763 723.052 437.222 723.052 468.826C723.052 501.164 729.666 529.461 742.896 553.715C756.86 577.234 776.704 595.608 802.428 608.837C828.887 622.067 860.123 628.681 896.137 628.681C921.126 628.681 943.175 625.006 962.284 617.657C982.128 610.307 1003.44 597.813 1026.23 580.173L1108.91 697.033C1086.13 716.877 1061.87 733.047 1036.15 745.541C1010.42 758.036 983.965 767.223 956.771 773.102C930.313 779.717 903.854 783.025 877.395 783.025ZM1427.45 781.922C1378.21 781.922 1334.11 769.06 1295.16 743.336C1256.94 716.877 1226.44 680.864 1203.65 635.296C1180.87 588.993 1169.48 536.81 1169.48 478.748C1169.48 419.216 1180.87 366.665 1203.65 321.097C1226.44 275.529 1257.67 239.883 1297.36 214.159C1337.05 187.701 1382.25 174.471 1432.96 174.471C1460.89 174.471 1486.25 178.514 1509.03 186.598C1532.55 194.683 1553.13 206.075 1570.77 220.774C1588.41 234.739 1603.47 251.275 1615.97 270.385C1628.46 288.759 1637.65 308.603 1643.53 329.917L1607.15 325.507V186.598H1782.44V772H1603.84V630.886L1643.53 629.784C1637.65 650.363 1628.1 669.839 1614.87 688.214C1601.64 706.588 1585.47 722.757 1566.36 736.722C1547.25 750.686 1525.93 761.71 1502.42 769.795C1478.9 777.88 1453.91 781.922 1427.45 781.922ZM1475.96 633.091C1503.15 633.091 1526.67 626.844 1546.51 614.349C1566.36 601.855 1581.79 584.216 1592.82 561.432C1603.84 537.913 1609.35 510.351 1609.35 478.748C1609.35 447.144 1603.84 419.95 1592.82 397.166C1581.79 373.648 1566.36 355.641 1546.51 343.146C1526.67 329.917 1503.15 323.302 1475.96 323.302C1449.5 323.302 1426.35 329.917 1406.5 343.146C1387.39 355.641 1372.33 373.648 1361.3 397.166C1350.28 419.95 1344.77 447.144 1344.77 478.748C1344.77 510.351 1350.28 537.913 1361.3 561.432C1372.33 584.216 1387.39 601.855 1406.5 614.349C1426.35 626.844 1449.5 633.091 1475.96 633.091ZM2102.35 783.025C2045.02 783.025 1994.31 773.837 1950.21 755.463C1906.85 737.089 1872.3 712.468 1846.58 681.599L1953.52 588.993C1976.3 611.777 2002.02 628.681 2030.69 639.706C2059.35 649.995 2086.55 655.14 2112.27 655.14C2122.56 655.14 2131.75 654.038 2139.83 651.833C2147.92 649.628 2154.53 646.688 2159.68 643.013C2165.55 638.603 2169.96 633.826 2172.9 628.681C2175.84 622.802 2177.31 616.187 2177.31 608.837C2177.31 594.138 2170.7 582.746 2157.47 574.661C2150.86 570.986 2139.83 566.577 2124.4 561.432C2108.96 556.287 2089.12 550.407 2064.86 543.793C2030.32 534.973 2000.19 524.683 1974.46 512.924C1949.47 500.429 1928.9 486.098 1912.73 469.928C1898.03 454.494 1886.63 437.59 1878.55 419.215C1870.47 400.106 1866.42 378.792 1866.42 355.273C1866.42 328.079 1872.67 303.458 1885.16 281.409C1898.39 259.36 1915.67 240.251 1936.98 224.082C1959.03 207.912 1984.02 195.785 2011.95 187.701C2040.61 178.881 2070.01 174.471 2100.14 174.471C2132.48 174.471 2163.35 178.146 2192.75 185.496C2222.15 192.845 2249.34 203.135 2274.33 216.364C2300.05 229.594 2322.84 245.396 2342.68 263.77L2250.08 367.4C2236.85 354.906 2221.78 343.881 2204.88 334.327C2188.71 324.037 2171.8 315.953 2154.16 310.073C2136.52 304.193 2120.35 301.253 2105.66 301.253C2094.63 301.253 2084.71 302.356 2075.89 304.561C2067.8 306.03 2060.82 308.97 2054.94 313.38C2049.06 317.055 2044.65 321.832 2041.71 327.712C2038.77 332.857 2037.3 339.104 2037.3 346.454C2037.3 353.803 2039.14 360.786 2042.82 367.4C2047.23 374.015 2053.1 379.527 2060.45 383.937C2067.8 388.347 2079.56 393.492 2095.73 399.371C2111.9 404.516 2133.95 411.131 2161.88 419.215C2196.42 428.77 2226.19 439.427 2251.18 451.187C2276.17 462.946 2296.01 476.91 2310.71 493.08C2322.47 505.574 2331.29 520.274 2337.17 537.178C2343.05 553.347 2345.99 570.986 2345.99 590.095C2345.99 627.579 2335.33 661.02 2314.02 690.419C2293.44 719.082 2264.78 741.866 2228.03 758.771C2191.28 774.94 2149.39 783.025 2102.35 783.025ZM2696.7 783.025C2632.02 783.025 2575.8 770.163 2528.02 744.439C2480.25 717.98 2443.13 682.334 2416.68 637.501C2390.22 591.933 2376.99 540.118 2376.99 482.055C2376.99 437.222 2384.34 396.064 2399.04 358.581C2413.74 321.097 2434.31 288.759 2460.77 261.565C2487.23 233.636 2518.47 212.322 2554.48 197.623C2591.23 182.188 2631.29 174.471 2674.65 174.471C2715.81 174.471 2753.29 181.821 2787.1 196.52C2821.64 211.22 2851.41 231.799 2876.4 258.258C2901.39 284.716 2920.5 315.953 2933.73 351.966C2946.95 387.979 2952.83 427.3 2951.36 469.928L2950.26 517.334H2483.93L2458.57 418.113H2806.94L2788.2 439.06V417.011C2786.73 398.636 2780.85 382.467 2770.56 368.503C2761.01 353.803 2748.15 342.411 2731.98 334.327C2715.81 326.242 2697.43 322.2 2676.85 322.2C2648.19 322.2 2623.57 328.079 2602.99 339.839C2583.15 350.864 2568.08 367.4 2557.79 389.449C2547.5 410.763 2542.36 437.222 2542.36 468.826C2542.36 501.164 2548.97 529.461 2562.2 553.715C2576.16 577.234 2596.01 595.608 2621.73 608.837C2648.19 622.067 2679.43 628.681 2715.44 628.681C2740.43 628.681 2762.48 625.006 2781.59 617.657C2801.43 610.307 2822.75 597.813 2845.53 580.173L2928.21 697.033C2905.43 716.877 2881.18 733.047 2855.45 745.541C2829.73 758.036 2803.27 767.223 2776.07 773.102C2749.62 779.717 2723.16 783.025 2696.7 783.025Z" fill="#0C142B"/>
<path d="M3306.29 783.025C3245.28 783.025 3190.9 769.795 3143.12 743.336C3096.08 716.877 3058.6 680.864 3030.67 635.296C3003.48 589.728 2989.88 537.545 2989.88 478.748C2989.88 419.95 3003.48 367.768 3030.67 322.2C3058.6 276.632 3096.08 240.618 3143.12 214.159C3190.9 187.701 3245.28 174.471 3306.29 174.471C3367.29 174.471 3421.31 187.701 3468.35 214.159C3516.12 240.618 3553.6 276.632 3580.8 322.2C3607.99 367.768 3621.59 419.95 3621.59 478.748C3621.59 537.545 3607.99 589.728 3580.8 635.296C3553.6 680.864 3516.12 716.877 3468.35 743.336C3421.31 769.795 3367.29 783.025 3306.29 783.025ZM3306.29 630.886C3332.74 630.886 3356.26 624.271 3376.84 611.042C3397.42 597.813 3413.59 579.806 3425.35 557.022C3437.11 534.238 3442.62 508.147 3441.89 478.748C3442.62 449.349 3437.11 423.258 3425.35 400.474C3413.59 376.955 3397.42 358.581 3376.84 345.351C3356.26 332.122 3332.74 325.507 3306.29 325.507C3279.83 325.507 3255.94 332.122 3234.63 345.351C3214.05 358.581 3197.88 376.955 3186.12 400.474C3174.36 423.258 3168.85 449.349 3169.58 478.748C3168.85 508.147 3174.36 534.238 3186.12 557.022C3197.88 579.806 3214.05 597.813 3234.63 611.042C3255.94 624.271 3279.83 630.886 3306.29 630.886ZM3703.86 772V186.598H3871.43L3876.94 305.663L3841.66 318.892C3849.75 292.434 3864.08 268.547 3884.66 247.233C3905.97 225.184 3931.33 207.545 3960.73 194.315C3990.13 181.086 4021 174.471 4053.33 174.471C4097.43 174.471 4134.55 183.658 4164.68 202.033C4194.82 219.672 4217.6 246.498 4233.03 282.511C4248.47 317.79 4256.19 361.153 4256.19 412.601V772H4078.69V426.933C4078.69 403.414 4075.38 383.937 4068.77 368.503C4062.15 353.068 4051.86 341.676 4037.9 334.327C4024.67 326.242 4008.13 322.567 3988.29 323.302C3972.86 323.302 3958.52 325.875 3945.29 331.019C3932.06 335.429 3920.67 342.411 3911.12 351.966C3901.56 360.786 3893.85 371.075 3887.97 382.835C3882.82 394.594 3880.25 407.456 3880.25 421.42V772H3793.16C3772.58 772 3754.94 772 3740.24 772C3725.54 772 3713.41 772 3703.86 772Z" fill="#2563EB"/>
</svg>
