<svg width="400" height="50" viewBox="0 0 231 19" fill="none" xmlns="http://www.w3.org/2000/svg">
<path d="M0.375 18V0.124999H4V18H0.375ZM18.3471 18.125C16.1137 18.125 14.3721 17.575 13.1221 16.475C11.8721 15.3583 11.2471 13.725 11.2471 11.575C11.2471 9.40833 11.8721 7.775 13.1221 6.675C14.3721 5.55833 16.1137 5 18.3471 5H24.5971C26.0637 5 27.1804 5.35 27.9471 6.05C28.7304 6.73333 29.1221 7.71667 29.1221 9C29.1221 11.6167 27.6137 12.925 24.5971 12.925H15.1471C15.4971 14.475 16.5637 15.25 18.3471 15.25H28.4721V18.125H18.3471ZM18.3471 7.875C16.6304 7.875 15.5721 8.6 15.1721 10.05H24.4221C24.7554 10.05 25.0137 9.95 25.1971 9.75C25.3971 9.55 25.4971 9.275 25.4971 8.925C25.4971 8.225 25.1387 7.875 24.4221 7.875H18.3471ZM39.801 18C38.451 18 37.4176 17.6583 36.701 16.975C35.9843 16.2917 35.626 15.3167 35.626 14.05C35.626 12.8 35.9843 11.8333 36.701 11.15C37.4176 10.4667 38.451 10.125 39.801 10.125H49.401V9.525C49.401 8.50833 48.901 8 47.901 8H37.301V5.125H48.851C50.3676 5.125 51.4426 5.475 52.076 6.175C52.7093 6.85833 53.026 7.825 53.026 9.075V18H39.801ZM40.451 15.125H49.401V13H40.451C40.1343 13 39.8843 13.1 39.701 13.3C39.5343 13.4833 39.451 13.7333 39.451 14.05C39.451 14.3667 39.5343 14.625 39.701 14.825C39.8843 15.025 40.1343 15.125 40.451 15.125ZM60.3602 18.125V15.25H72.6102C73.3102 15.25 73.6602 14.8583 73.6602 14.075C73.6602 13.3083 73.3102 12.925 72.6102 12.925H64.6852C63.2018 12.925 62.0768 12.5917 61.3102 11.925C60.5435 11.2417 60.1602 10.2667 60.1602 9C60.1602 7.71667 60.5435 6.73333 61.3102 6.05C62.0935 5.35 63.2185 5 64.6852 5H76.0852V7.875H64.8602C64.1435 7.875 63.7852 8.225 63.7852 8.925C63.7852 9.275 63.8852 9.55 64.0852 9.75C64.2852 9.95 64.5435 10.05 64.8602 10.05H73.2602C74.5602 10.05 75.5518 10.3917 76.2352 11.075C76.9352 11.7417 77.2852 12.7167 77.2852 14C77.2852 15.3 76.9352 16.3167 76.2352 17.05C75.5352 17.7667 74.5435 18.125 73.2602 18.125H60.3602ZM91.0131 18.125C88.7798 18.125 87.0381 17.575 85.7881 16.475C84.5381 15.3583 83.9131 13.725 83.9131 11.575C83.9131 9.40833 84.5381 7.775 85.7881 6.675C87.0381 5.55833 88.7798 5 91.0131 5H97.2631C98.7298 5 99.8464 5.35 100.613 6.05C101.396 6.73333 101.788 7.71667 101.788 9C101.788 11.6167 100.28 12.925 97.2631 12.925H87.8131C88.1631 14.475 89.2298 15.25 91.0131 15.25H101.138V18.125H91.0131ZM91.0131 7.875C89.2964 7.875 88.2381 8.6 87.8381 10.05H97.0881C97.4214 10.05 97.6798 9.95 97.8631 9.75C98.0631 9.55 98.1631 9.275 98.1631 8.925C98.1631 8.225 97.8048 7.875 97.0881 7.875H91.0131Z" fill="#405FF2"/>
<path d="M113.098 18L107.673 5.125H111.473L115.673 15.1H116.923L121.123 5.125H124.923L119.498 18H113.098ZM131.547 18V5.125H135.172V18H131.547ZM131.522 3V0.174999H135.197V3H131.522ZM158.769 18H155.144V0.124999H158.769V18ZM158.144 18H149.519C147.286 18 145.544 17.45 144.294 16.35C143.044 15.25 142.419 13.6583 142.419 11.575C142.419 9.475 143.044 7.875 144.294 6.775C145.544 5.675 147.286 5.125 149.519 5.125H157.894V8H149.519C148.436 8 147.602 8.3 147.019 8.9C146.452 9.48333 146.169 10.375 146.169 11.575C146.169 12.7583 146.452 13.65 147.019 14.25C147.602 14.8333 148.436 15.125 149.519 15.125H158.144V18ZM173.122 18.125C170.889 18.125 169.147 17.575 167.897 16.475C166.647 15.3583 166.022 13.725 166.022 11.575C166.022 9.40833 166.647 7.775 167.897 6.675C169.147 5.55833 170.889 5 173.122 5H179.372C180.839 5 181.956 5.35 182.722 6.05C183.506 6.73333 183.897 7.71667 183.897 9C183.897 11.6167 182.389 12.925 179.372 12.925H169.922C170.272 14.475 171.339 15.25 173.122 15.25H183.247V18.125H173.122ZM173.122 7.875C171.406 7.875 170.347 8.6 169.947 10.05H179.197C179.531 10.05 179.789 9.95 179.972 9.75C180.172 9.55 180.272 9.275 180.272 8.925C180.272 8.225 179.914 7.875 179.197 7.875H173.122ZM191.151 18V5.125H201.001C202.451 5.125 203.518 5.49167 204.201 6.225C204.885 6.94167 205.226 7.89167 205.226 9.075V11.75H201.551V9.525C201.551 8.525 201.051 8.025 200.051 8.025H194.826V18H191.151ZM219.304 18.125C217.071 18.125 215.329 17.575 214.079 16.475C212.829 15.3583 212.204 13.725 212.204 11.575C212.204 9.40833 212.829 7.775 214.079 6.675C215.329 5.55833 217.071 5 219.304 5H225.554C227.021 5 228.137 5.35 228.904 6.05C229.687 6.73333 230.079 7.71667 230.079 9C230.079 11.6167 228.571 12.925 225.554 12.925H216.104C216.454 14.475 217.521 15.25 219.304 15.25H229.429V18.125H219.304ZM219.304 7.875C217.587 7.875 216.529 8.6 216.129 10.05H225.379C225.712 10.05 225.971 9.95 226.154 9.75C226.354 9.55 226.454 9.275 226.454 8.925C226.454 8.225 226.096 7.875 225.379 7.875H219.304Z" fill="#0C142B"/>
</svg>
