<svg width="400" height="120" viewBox="0 0 4423 1615" fill="none" xmlns="http://www.w3.org/2000/svg">
<path d="M97.0157 1102V330.284H284.433V936.632H628.397V1102H97.0157ZM974.395 1113.02C909.718 1113.02 853.493 1100.16 805.72 1074.44C757.947 1047.98 720.831 1012.33 694.372 967.501C667.913 921.933 654.684 870.118 654.684 812.055C654.684 767.222 662.034 726.064 676.733 688.581C691.432 651.097 712.011 618.759 738.47 591.565C764.929 563.636 796.165 542.322 832.179 527.623C868.927 512.188 908.983 504.471 952.346 504.471C993.504 504.471 1030.99 511.821 1064.8 526.52C1099.34 541.22 1129.11 561.799 1154.09 588.258C1179.08 614.716 1198.19 645.953 1211.42 681.966C1224.65 717.979 1230.53 757.3 1229.06 799.928L1227.96 847.334H761.622L736.265 748.113H1084.64L1065.9 769.06V747.011C1064.43 728.636 1058.55 712.467 1048.26 698.503C1038.7 683.803 1025.84 672.411 1009.67 664.327C993.504 656.242 975.13 652.2 954.551 652.2C925.887 652.2 901.266 658.079 880.687 669.839C860.842 680.864 845.776 697.4 835.486 719.449C825.196 740.763 820.052 767.222 820.052 798.826C820.052 831.164 826.666 859.461 839.896 883.715C853.86 907.234 873.704 925.608 899.428 938.837C925.887 952.067 957.123 958.681 993.137 958.681C1018.13 958.681 1040.17 955.006 1059.28 947.657C1079.13 940.307 1100.44 927.813 1123.23 910.173L1205.91 1027.03C1183.13 1046.88 1158.87 1063.05 1133.15 1075.54C1107.42 1088.04 1080.97 1097.22 1053.77 1103.1C1027.31 1109.72 1000.85 1113.02 974.395 1113.02ZM1524.45 1111.92C1475.21 1111.92 1431.11 1099.06 1392.16 1073.34C1353.94 1046.88 1323.44 1010.86 1300.65 965.296C1277.87 918.993 1266.48 866.81 1266.48 808.748C1266.48 749.216 1277.87 696.665 1300.65 651.097C1323.44 605.529 1354.67 569.883 1394.36 544.159C1434.05 517.701 1479.25 504.471 1529.96 504.471C1557.89 504.471 1583.25 508.514 1606.03 516.598C1629.55 524.683 1650.13 536.075 1667.77 550.774C1685.41 564.739 1700.47 581.275 1712.97 600.385C1725.46 618.759 1734.65 638.603 1740.53 659.917L1704.15 655.507V516.598H1879.44V1102H1700.84V960.886L1740.53 959.784C1734.65 980.363 1725.1 999.839 1711.87 1018.21C1698.64 1036.59 1682.47 1052.76 1663.36 1066.72C1644.25 1080.69 1622.93 1091.71 1599.42 1099.8C1575.9 1107.88 1550.91 1111.92 1524.45 1111.92ZM1572.96 963.091C1600.15 963.091 1623.67 956.844 1643.51 944.349C1663.36 931.855 1678.79 914.216 1689.82 891.432C1700.84 867.913 1706.35 840.351 1706.35 808.748C1706.35 777.144 1700.84 749.95 1689.82 727.166C1678.79 703.648 1663.36 685.641 1643.51 673.146C1623.67 659.917 1600.15 653.302 1572.96 653.302C1546.5 653.302 1523.35 659.917 1503.5 673.146C1484.39 685.641 1469.33 703.648 1458.3 727.166C1447.28 749.95 1441.77 777.144 1441.77 808.748C1441.77 840.351 1447.28 867.913 1458.3 891.432C1469.33 914.216 1484.39 931.855 1503.5 944.349C1523.35 956.844 1546.5 963.091 1572.96 963.091ZM2199.35 1113.02C2142.02 1113.02 2091.31 1103.84 2047.21 1085.46C2003.85 1067.09 1969.3 1042.47 1943.58 1011.6L2050.52 918.993C2073.3 941.777 2099.02 958.681 2127.69 969.706C2156.35 979.995 2183.55 985.14 2209.27 985.14C2219.56 985.14 2228.75 984.038 2236.83 981.833C2244.92 979.628 2251.53 976.688 2256.68 973.013C2262.55 968.603 2266.96 963.826 2269.9 958.681C2272.84 952.802 2274.31 946.187 2274.31 938.837C2274.31 924.138 2267.7 912.746 2254.47 904.661C2247.86 900.986 2236.83 896.577 2221.4 891.432C2205.96 886.287 2186.12 880.407 2161.86 873.793C2127.32 864.973 2097.19 854.683 2071.46 842.924C2046.47 830.429 2025.9 816.098 2009.73 799.928C1995.03 784.494 1983.63 767.59 1975.55 749.215C1967.47 730.106 1963.42 708.792 1963.42 685.273C1963.42 658.079 1969.67 633.458 1982.16 611.409C1995.39 589.36 2012.67 570.251 2033.98 554.082C2056.03 537.912 2081.02 525.785 2108.95 517.701C2137.61 508.881 2167.01 504.471 2197.14 504.471C2229.48 504.471 2260.35 508.146 2289.75 515.496C2319.15 522.845 2346.34 533.135 2371.33 546.364C2397.05 559.594 2419.84 575.396 2439.68 593.77L2347.08 697.4C2333.85 684.906 2318.78 673.881 2301.88 664.327C2285.71 654.037 2268.8 645.953 2251.16 640.073C2233.52 634.193 2217.35 631.253 2202.66 631.253C2191.63 631.253 2181.71 632.356 2172.89 634.561C2164.8 636.03 2157.82 638.97 2151.94 643.38C2146.06 647.055 2141.65 651.832 2138.71 657.712C2135.77 662.857 2134.3 669.104 2134.3 676.454C2134.3 683.803 2136.14 690.786 2139.82 697.4C2144.23 704.015 2150.1 709.527 2157.45 713.937C2164.8 718.347 2176.56 723.492 2192.73 729.371C2208.9 734.516 2230.95 741.131 2258.88 749.215C2293.42 758.77 2323.19 769.427 2348.18 781.187C2373.17 792.946 2393.01 806.91 2407.71 823.08C2419.47 835.574 2428.29 850.274 2434.17 867.178C2440.05 883.347 2442.99 900.986 2442.99 920.095C2442.99 957.579 2432.33 991.02 2411.02 1020.42C2390.44 1049.08 2361.78 1071.87 2325.03 1088.77C2288.28 1104.94 2246.39 1113.02 2199.35 1113.02ZM2793.7 1113.02C2729.02 1113.02 2672.8 1100.16 2625.02 1074.44C2577.25 1047.98 2540.13 1012.33 2513.68 967.501C2487.22 921.933 2473.99 870.118 2473.99 812.055C2473.99 767.222 2481.34 726.064 2496.04 688.581C2510.74 651.097 2531.31 618.759 2557.77 591.565C2584.23 563.636 2615.47 542.322 2651.48 527.623C2688.23 512.188 2728.29 504.471 2771.65 504.471C2812.81 504.471 2850.29 511.821 2884.1 526.52C2918.64 541.22 2948.41 561.799 2973.4 588.258C2998.39 614.716 3017.5 645.953 3030.73 681.966C3043.95 717.979 3049.83 757.3 3048.36 799.928L3047.26 847.334H2580.93L2555.57 748.113H2903.94L2885.2 769.06V747.011C2883.73 728.636 2877.85 712.467 2867.56 698.503C2858.01 683.803 2845.15 672.411 2828.98 664.327C2812.81 656.242 2794.43 652.2 2773.85 652.2C2745.19 652.2 2720.57 658.079 2699.99 669.839C2680.15 680.864 2665.08 697.4 2654.79 719.449C2644.5 740.763 2639.36 767.222 2639.36 798.826C2639.36 831.164 2645.97 859.461 2659.2 883.715C2673.16 907.234 2693.01 925.608 2718.73 938.837C2745.19 952.067 2776.43 958.681 2812.44 958.681C2837.43 958.681 2859.48 955.006 2878.59 947.657C2898.43 940.307 2919.75 927.813 2942.53 910.173L3025.21 1027.03C3002.43 1046.88 2978.18 1063.05 2952.45 1075.54C2926.73 1088.04 2900.27 1097.22 2873.07 1103.1C2846.62 1109.72 2820.16 1113.02 2793.7 1113.02Z" fill="#FFFFFF"/>
<path d="M3403.29 1113.02C3342.28 1113.02 3287.9 1099.8 3240.12 1073.34C3193.08 1046.88 3155.6 1010.86 3127.67 965.296C3100.48 919.728 3086.88 867.545 3086.88 808.748C3086.88 749.95 3100.48 697.768 3127.67 652.2C3155.6 606.632 3193.08 570.618 3240.12 544.159C3287.9 517.701 3342.28 504.471 3403.29 504.471C3464.29 504.471 3518.31 517.701 3565.35 544.159C3613.12 570.618 3650.6 606.632 3677.8 652.2C3704.99 697.768 3718.59 749.95 3718.59 808.748C3718.59 867.545 3704.99 919.728 3677.8 965.296C3650.6 1010.86 3613.12 1046.88 3565.35 1073.34C3518.31 1099.8 3464.29 1113.02 3403.29 1113.02ZM3403.29 960.886C3429.74 960.886 3453.26 954.271 3473.84 941.042C3494.42 927.813 3510.59 909.806 3522.35 887.022C3534.11 864.238 3539.62 838.147 3538.89 808.748C3539.62 779.349 3534.11 753.258 3522.35 730.474C3510.59 706.955 3494.42 688.581 3473.84 675.351C3453.26 662.122 3429.74 655.507 3403.29 655.507C3376.83 655.507 3352.94 662.122 3331.63 675.351C3311.05 688.581 3294.88 706.955 3283.12 730.474C3271.36 753.258 3265.85 779.349 3266.58 808.748C3265.85 838.147 3271.36 864.238 3283.12 887.022C3294.88 909.806 3311.05 927.813 3331.63 941.042C3352.94 954.271 3376.83 960.886 3403.29 960.886ZM3800.86 1102V516.598H3968.43L3973.94 635.663L3938.66 648.892C3946.75 622.434 3961.08 598.547 3981.66 577.233C4002.97 555.184 4028.33 537.545 4057.73 524.315C4087.13 511.086 4118 504.471 4150.33 504.471C4194.43 504.471 4231.55 513.658 4261.68 532.033C4291.82 549.672 4314.6 576.498 4330.03 612.511C4345.47 647.79 4353.19 691.153 4353.19 742.601V1102H4175.69V756.933C4175.69 733.414 4172.38 713.937 4165.77 698.503C4159.15 683.068 4148.86 671.676 4134.9 664.327C4121.67 656.242 4105.13 652.567 4085.29 653.302C4069.86 653.302 4055.52 655.875 4042.29 661.019C4029.06 665.429 4017.67 672.411 4008.12 681.966C3998.56 690.786 3990.85 701.075 3984.97 712.835C3979.82 724.594 3977.25 737.456 3977.25 751.42V1102H3890.16C3869.58 1102 3851.94 1102 3837.24 1102C3822.54 1102 3810.41 1102 3800.86 1102Z" fill="#2563EB"/>
<path d="M2064.22 1492.06C2054.01 1492.06 2044.2 1490.53 2034.81 1487.47C2025.62 1484.4 2017.04 1479.91 2009.07 1473.99C2001.31 1467.86 1994.47 1460.4 1988.54 1451.62L1999.57 1440.29C2008.56 1453.36 2018.57 1462.75 2029.6 1468.47C2040.63 1473.99 2052.37 1476.74 2064.83 1476.74C2075.66 1476.74 2085.36 1474.91 2093.94 1471.23C2102.52 1467.35 2109.26 1462.14 2114.16 1455.6C2119.27 1448.86 2121.82 1441.31 2121.82 1432.93C2121.82 1427.21 2120.8 1422.31 2118.76 1418.23C2116.92 1414.14 2114.16 1410.57 2110.49 1407.5C2107.01 1404.44 2102.72 1401.78 2097.62 1399.54C2092.71 1397.09 2087.1 1394.94 2080.77 1393.1C2074.64 1391.06 2068 1389.02 2060.85 1386.97C2051.05 1384.11 2042.26 1381.15 2034.5 1378.09C2026.94 1375.03 2020.41 1371.35 2014.89 1367.06C2009.58 1362.77 2005.5 1357.66 2002.64 1351.74C1999.98 1345.82 1998.66 1338.57 1998.66 1329.99C1998.66 1321.61 2000.29 1313.95 2003.56 1307.01C2007.03 1300.06 2011.83 1294.04 2017.96 1288.93C2024.09 1283.83 2031.13 1279.94 2039.1 1277.29C2047.27 1274.43 2056.05 1273 2065.45 1273C2076.48 1273 2086.08 1274.63 2094.25 1277.9C2102.62 1280.97 2109.97 1285.36 2116.31 1291.08C2122.64 1296.8 2128.36 1303.54 2133.46 1311.3L2122.13 1322.33C2117.63 1315.38 2112.63 1309.36 2107.11 1304.25C2101.6 1299.14 2095.37 1295.26 2088.43 1292.61C2081.69 1289.75 2074.03 1288.32 2065.45 1288.32C2055.64 1288.32 2046.86 1290.16 2039.1 1293.83C2031.54 1297.31 2025.51 1302.21 2021.02 1308.54C2016.53 1314.87 2014.28 1322.12 2014.28 1330.29C2014.28 1336.01 2015.3 1341.02 2017.34 1345.31C2019.59 1349.6 2022.96 1353.37 2027.46 1356.64C2032.15 1359.71 2037.97 1362.57 2044.92 1365.22C2052.07 1367.67 2060.54 1370.12 2070.35 1372.57C2080.36 1375.03 2089.45 1377.89 2097.62 1381.15C2105.79 1384.42 2112.83 1388.3 2118.76 1392.8C2124.89 1397.29 2129.48 1402.7 2132.54 1409.03C2135.81 1415.37 2137.45 1423.03 2137.45 1432.01C2137.45 1443.45 2134.28 1453.77 2127.95 1462.96C2121.62 1471.94 2112.94 1479.09 2101.91 1484.4C2090.88 1489.51 2078.31 1492.06 2064.22 1492.06ZM2191.3 1556.4V1329.68H2206.01L2207.54 1371.04L2203.56 1374.72C2206.21 1365.53 2210.71 1357.36 2217.04 1350.21C2223.57 1342.86 2231.44 1337.03 2240.63 1332.74C2249.82 1328.46 2259.83 1326.31 2270.65 1326.31C2284.75 1326.31 2297.51 1329.89 2308.95 1337.03C2320.59 1344.18 2329.79 1353.99 2336.53 1366.45C2343.47 1378.91 2346.94 1393.2 2346.94 1409.34C2346.94 1425.27 2343.57 1439.47 2336.83 1451.93C2330.3 1464.39 2321.21 1474.19 2309.56 1481.34C2298.13 1488.49 2285.16 1492.06 2270.65 1492.06C2259.83 1492.06 2249.82 1489.92 2240.63 1485.63C2231.44 1481.34 2223.57 1475.62 2217.04 1468.47C2210.71 1461.12 2206.21 1452.85 2203.56 1443.66L2206.62 1447.64V1556.4H2191.3ZM2268.2 1476.74C2280.46 1476.74 2291.28 1473.89 2300.68 1468.17C2310.08 1462.24 2317.43 1454.17 2322.74 1443.96C2328.05 1433.75 2330.71 1422.21 2330.71 1409.34C2330.71 1396.27 2327.95 1384.63 2322.43 1374.41C2317.12 1364.2 2309.77 1356.23 2300.37 1350.51C2290.98 1344.59 2280.25 1341.63 2268.2 1341.63C2256.15 1341.63 2245.33 1344.59 2235.73 1350.51C2226.33 1356.23 2218.88 1364.2 2213.36 1374.41C2208.05 1384.42 2205.39 1395.96 2205.39 1409.03C2205.39 1422.31 2208.15 1434.06 2213.67 1444.27C2219.18 1454.28 2226.64 1462.24 2236.03 1468.17C2245.43 1473.89 2256.15 1476.74 2268.2 1476.74ZM2457.94 1492.06C2443.44 1492.06 2430.47 1488.49 2419.03 1481.34C2407.59 1474.19 2398.5 1464.39 2391.76 1451.93C2385.23 1439.47 2381.96 1425.27 2381.96 1409.34C2381.96 1393.2 2385.33 1378.91 2392.07 1366.45C2399.01 1353.99 2408.2 1344.18 2419.64 1337.03C2431.08 1329.89 2443.85 1326.31 2457.94 1326.31C2466.11 1326.31 2473.87 1327.54 2481.23 1329.99C2488.58 1332.44 2495.22 1335.91 2501.14 1340.4C2507.06 1344.69 2512.17 1349.8 2516.46 1355.72C2520.75 1361.65 2523.81 1368.08 2525.65 1375.03L2519.52 1371.04L2521.06 1329.68H2535.76V1489H2520.44V1449.17L2525.65 1443.35C2523.81 1450.09 2520.75 1456.42 2516.46 1462.34C2512.17 1468.27 2507.06 1473.48 2501.14 1477.97C2495.22 1482.46 2488.58 1485.94 2481.23 1488.39C2473.87 1490.84 2466.11 1492.06 2457.94 1492.06ZM2460.08 1476.74C2471.73 1476.74 2482.14 1473.89 2491.34 1468.17C2500.73 1462.24 2508.08 1454.28 2513.4 1444.27C2518.91 1434.06 2521.67 1422.31 2521.67 1409.03C2521.67 1395.96 2519.01 1384.42 2513.7 1374.41C2508.39 1364.2 2501.04 1356.23 2491.64 1350.51C2482.45 1344.59 2471.93 1341.63 2460.08 1341.63C2448.03 1341.63 2437.31 1344.59 2427.91 1350.51C2418.72 1356.23 2411.47 1364.2 2406.16 1374.41C2400.85 1384.42 2398.2 1395.96 2398.2 1409.03C2398.2 1421.9 2400.75 1433.44 2405.86 1443.66C2411.17 1453.87 2418.42 1461.94 2427.61 1467.86C2437 1473.78 2447.83 1476.74 2460.08 1476.74ZM2595.94 1489V1329.68H2610.65L2612.18 1365.22H2610.04C2612.28 1358.48 2615.75 1352.15 2620.45 1346.23C2625.15 1340.3 2630.87 1335.5 2637.61 1331.83C2644.55 1328.15 2652.52 1326.31 2661.51 1326.31C2664.98 1326.31 2668.15 1326.62 2671.01 1327.23C2674.07 1327.64 2676.83 1328.15 2679.28 1328.76L2674.68 1346.53C2671.82 1345.31 2669.07 1344.49 2666.41 1344.08C2663.75 1343.67 2661.41 1343.47 2659.36 1343.47C2651.19 1343.47 2644.04 1344.9 2637.92 1347.76C2631.99 1350.62 2626.99 1354.6 2622.9 1359.71C2619.02 1364.61 2616.06 1370.23 2614.02 1376.56C2612.18 1382.89 2611.26 1389.53 2611.26 1396.47V1489H2595.94ZM2818.07 1556.4V1329.68H2832.78L2834.31 1371.04L2830.32 1374.72C2832.98 1365.53 2837.47 1357.36 2843.81 1350.21C2850.34 1342.86 2858.21 1337.03 2867.4 1332.74C2876.59 1328.46 2886.6 1326.31 2897.42 1326.31C2911.52 1326.31 2924.28 1329.89 2935.72 1337.03C2947.36 1344.18 2956.55 1353.99 2963.29 1366.45C2970.24 1378.91 2973.71 1393.2 2973.71 1409.34C2973.71 1425.27 2970.34 1439.47 2963.6 1451.93C2957.07 1464.39 2947.98 1474.19 2936.33 1481.34C2924.89 1488.49 2911.92 1492.06 2897.42 1492.06C2886.6 1492.06 2876.59 1489.92 2867.4 1485.63C2858.21 1481.34 2850.34 1475.62 2843.81 1468.47C2837.47 1461.12 2832.98 1452.85 2830.32 1443.66L2833.39 1447.64V1556.4H2818.07ZM2894.97 1476.74C2907.23 1476.74 2918.05 1473.89 2927.45 1468.17C2936.84 1462.24 2944.2 1454.17 2949.51 1443.96C2954.82 1433.75 2957.47 1422.21 2957.47 1409.34C2957.47 1396.27 2954.72 1384.63 2949.2 1374.41C2943.89 1364.2 2936.54 1356.23 2927.14 1350.51C2917.75 1344.59 2907.02 1341.63 2894.97 1341.63C2882.92 1341.63 2872.09 1344.59 2862.49 1350.51C2853.1 1356.23 2845.64 1364.2 2840.13 1374.41C2834.82 1384.42 2832.16 1395.96 2832.16 1409.03C2832.16 1422.31 2834.92 1434.06 2840.44 1444.27C2845.95 1454.28 2853.41 1462.24 2862.8 1468.17C2872.2 1473.89 2882.92 1476.74 2894.97 1476.74ZM3084.71 1492.06C3070.21 1492.06 3057.24 1488.49 3045.8 1481.34C3034.36 1474.19 3025.27 1464.39 3018.53 1451.93C3011.99 1439.47 3008.73 1425.27 3008.73 1409.34C3008.73 1393.2 3012.1 1378.91 3018.84 1366.45C3025.78 1353.99 3034.97 1344.18 3046.41 1337.03C3057.85 1329.89 3070.62 1326.31 3084.71 1326.31C3092.88 1326.31 3100.64 1327.54 3107.99 1329.99C3115.35 1332.44 3121.99 1335.91 3127.91 1340.4C3133.83 1344.69 3138.94 1349.8 3143.23 1355.72C3147.52 1361.65 3150.58 1368.08 3152.42 1375.03L3146.29 1371.04L3147.82 1329.68H3162.53V1489H3147.21V1449.17L3152.42 1443.35C3150.58 1450.09 3147.52 1456.42 3143.23 1462.34C3138.94 1468.27 3133.83 1473.48 3127.91 1477.97C3121.99 1482.46 3115.35 1485.94 3107.99 1488.39C3100.64 1490.84 3092.88 1492.06 3084.71 1492.06ZM3086.85 1476.74C3098.5 1476.74 3108.91 1473.89 3118.1 1468.17C3127.5 1462.24 3134.85 1454.28 3140.16 1444.27C3145.68 1434.06 3148.44 1422.31 3148.44 1409.03C3148.44 1395.96 3145.78 1384.42 3140.47 1374.41C3135.16 1364.2 3127.81 1356.23 3118.41 1350.51C3109.22 1344.59 3098.7 1341.63 3086.85 1341.63C3074.8 1341.63 3064.08 1344.59 3054.68 1350.51C3045.49 1356.23 3038.24 1364.2 3032.93 1374.41C3027.62 1384.42 3024.96 1395.96 3024.96 1409.03C3024.96 1421.9 3027.52 1433.44 3032.62 1443.66C3037.93 1453.87 3045.19 1461.94 3054.38 1467.86C3063.77 1473.78 3074.6 1476.74 3086.85 1476.74ZM3091.76 1309.77C3086.24 1309.77 3081.03 1308.34 3076.13 1305.48C3071.23 1302.62 3067.24 1298.84 3064.18 1294.14C3061.32 1289.44 3059.89 1284.44 3059.89 1279.13C3059.89 1273.41 3061.32 1268.3 3064.18 1263.81C3067.24 1259.11 3071.13 1255.33 3075.82 1252.47C3080.73 1249.61 3086.04 1248.18 3091.76 1248.18C3097.47 1248.18 3102.79 1249.61 3107.69 1252.47C3112.59 1255.33 3116.47 1259.11 3119.33 1263.81C3122.39 1268.3 3123.93 1273.41 3123.93 1279.13C3123.93 1284.44 3122.39 1289.44 3119.33 1294.14C3116.47 1298.84 3112.59 1302.62 3107.69 1305.48C3102.79 1308.34 3097.47 1309.77 3091.76 1309.77ZM3091.76 1297.82C3097.27 1297.82 3101.97 1295.98 3105.85 1292.3C3109.73 1288.63 3111.67 1284.23 3111.67 1279.13C3111.67 1273.41 3109.73 1268.81 3105.85 1265.34C3101.97 1261.87 3097.27 1260.13 3091.76 1260.13C3086.04 1260.13 3081.34 1261.97 3077.66 1265.65C3073.99 1269.12 3072.15 1273.61 3072.15 1279.13C3072.15 1284.23 3074.09 1288.63 3077.97 1292.3C3081.85 1295.98 3086.44 1297.82 3091.76 1297.82ZM3387.32 1492.06C3372.82 1492.06 3359.85 1488.49 3348.41 1481.34C3336.97 1474.19 3327.88 1464.39 3321.14 1451.93C3314.61 1439.47 3311.34 1425.27 3311.34 1409.34C3311.34 1393.2 3314.71 1378.91 3321.45 1366.45C3328.39 1353.99 3337.59 1344.18 3349.02 1337.03C3360.46 1329.89 3373.23 1326.31 3387.32 1326.31C3395.49 1326.31 3403.25 1327.54 3410.61 1329.99C3417.96 1332.44 3424.6 1335.91 3430.52 1340.4C3436.45 1344.69 3441.55 1349.8 3445.84 1355.72C3450.13 1361.65 3453.19 1368.08 3455.03 1375.03L3448.9 1371.04L3450.44 1329.68H3465.14V1489H3449.82V1449.17L3455.03 1443.35C3453.19 1450.09 3450.13 1456.42 3445.84 1462.34C3441.55 1468.27 3436.45 1473.48 3430.52 1477.97C3424.6 1482.46 3417.96 1485.94 3410.61 1488.39C3403.25 1490.84 3395.49 1492.06 3387.32 1492.06ZM3389.47 1476.74C3401.11 1476.74 3411.53 1473.89 3420.72 1468.17C3430.11 1462.24 3437.47 1454.28 3442.78 1444.27C3448.29 1434.06 3451.05 1422.31 3451.05 1409.03C3451.05 1395.96 3448.39 1384.42 3443.08 1374.41C3437.77 1364.2 3430.42 1356.23 3421.02 1350.51C3411.83 1344.59 3401.31 1341.63 3389.47 1341.63C3377.42 1341.63 3366.69 1344.59 3357.3 1350.51C3348.1 1356.23 3340.85 1364.2 3335.54 1374.41C3330.23 1384.42 3327.58 1395.96 3327.58 1409.03C3327.58 1421.9 3330.13 1433.44 3335.24 1443.66C3340.55 1453.87 3347.8 1461.94 3356.99 1467.86C3366.39 1473.78 3377.21 1476.74 3389.47 1476.74ZM3544.63 1489V1298.74C3544.63 1292 3546.16 1286.07 3549.22 1280.97C3552.29 1275.66 3556.68 1271.47 3562.4 1268.4C3568.11 1265.34 3574.75 1263.81 3582.31 1263.81C3588.85 1263.81 3594.57 1264.93 3599.47 1267.18C3604.37 1269.43 3608.56 1272.59 3612.03 1276.68L3606.21 1288.93C3602.33 1284.64 3598.24 1281.78 3593.95 1280.35C3589.66 1278.72 3585.58 1277.9 3581.7 1277.9C3577 1277.9 3573.02 1278.72 3569.75 1280.35C3566.69 1281.99 3564.23 1284.44 3562.4 1287.71C3560.76 1290.77 3559.94 1294.55 3559.94 1299.04V1489H3554.43C3552.39 1489 3550.55 1489 3548.91 1489C3547.49 1489 3546.06 1489 3544.63 1489ZM3513.68 1343.77V1329.68H3603.45V1343.77H3513.68ZM3677.35 1489V1287.09H3692.67V1489H3677.35ZM3639.05 1343.77V1329.68H3735.56V1343.77H3639.05ZM3840.49 1492.06C3825.99 1492.06 3813.02 1488.49 3801.58 1481.34C3790.14 1474.19 3781.05 1464.39 3774.31 1451.93C3767.78 1439.47 3764.51 1425.27 3764.51 1409.34C3764.51 1393.2 3767.88 1378.91 3774.62 1366.45C3781.57 1353.99 3790.76 1344.18 3802.2 1337.03C3813.63 1329.89 3826.4 1326.31 3840.49 1326.31C3848.66 1326.31 3856.43 1327.54 3863.78 1329.99C3871.13 1332.44 3877.77 1335.91 3883.69 1340.4C3889.62 1344.69 3894.72 1349.8 3899.01 1355.72C3903.3 1361.65 3906.37 1368.08 3908.2 1375.03L3902.08 1371.04L3903.61 1329.68H3918.31V1489H3903V1449.17L3908.2 1443.35C3906.37 1450.09 3903.3 1456.42 3899.01 1462.34C3894.72 1468.27 3889.62 1473.48 3883.69 1477.97C3877.77 1482.46 3871.13 1485.94 3863.78 1488.39C3856.43 1490.84 3848.66 1492.06 3840.49 1492.06ZM3842.64 1476.74C3854.28 1476.74 3864.7 1473.89 3873.89 1468.17C3883.28 1462.24 3890.64 1454.28 3895.95 1444.27C3901.46 1434.06 3904.22 1422.31 3904.22 1409.03C3904.22 1395.96 3901.57 1384.42 3896.25 1374.41C3890.94 1364.2 3883.59 1356.23 3874.2 1350.51C3865 1344.59 3854.48 1341.63 3842.64 1341.63C3830.59 1341.63 3819.86 1344.59 3810.47 1350.51C3801.28 1356.23 3794.03 1364.2 3788.71 1374.41C3783.4 1384.42 3780.75 1395.96 3780.75 1409.03C3780.75 1421.9 3783.3 1433.44 3788.41 1443.66C3793.72 1453.87 3800.97 1461.94 3810.16 1467.86C3819.56 1473.78 3830.38 1476.74 3842.64 1476.74ZM3979.11 1489V1262.28H3994.43V1489H3979.11ZM4118.64 1492.06C4103.32 1492.06 4089.64 1488.59 4077.59 1481.65C4065.74 1474.7 4056.45 1465 4049.71 1452.54C4042.97 1440.08 4039.6 1425.58 4039.6 1409.03C4039.6 1396.98 4041.44 1385.95 4045.11 1375.94C4048.99 1365.94 4054.3 1357.26 4061.04 1349.9C4067.78 1342.34 4075.85 1336.52 4085.25 1332.44C4094.85 1328.35 4105.26 1326.31 4116.5 1326.31C4127.53 1326.31 4137.44 1328.15 4146.22 1331.83C4155.21 1335.5 4162.76 1340.81 4168.89 1347.76C4175.02 1354.5 4179.61 1362.57 4182.68 1371.96C4185.74 1381.15 4187.07 1391.37 4186.66 1402.6L4186.35 1410.87H4050.93V1396.78H4178.08L4171.34 1402.29V1394.94C4171.34 1386.77 4169.3 1378.6 4165.21 1370.43C4161.33 1362.26 4155.31 1355.42 4147.14 1349.9C4138.97 1344.39 4128.65 1341.63 4116.19 1341.63C4104.55 1341.63 4094.13 1344.18 4084.94 1349.29C4075.95 1354.4 4068.81 1361.85 4063.49 1371.66C4058.39 1381.46 4055.84 1393.61 4055.84 1408.11C4055.84 1422 4058.39 1434.16 4063.49 1444.57C4068.6 1454.79 4075.95 1462.75 4085.55 1468.47C4095.36 1473.99 4107.31 1476.74 4121.4 1476.74C4128.96 1476.74 4136.72 1475.52 4144.69 1473.07C4152.65 1470.62 4161.64 1465.31 4171.65 1457.14L4179.61 1468.47C4175.12 1472.76 4169.81 1476.74 4163.68 1480.42C4157.55 1483.89 4150.71 1486.75 4143.15 1489C4135.6 1491.04 4127.43 1492.06 4118.64 1492.06ZM4232.94 1489V1329.68H4247.64L4249.17 1363.38H4247.34C4249.58 1356.64 4253.67 1350.51 4259.59 1345C4265.51 1339.28 4272.56 1334.79 4280.73 1331.52C4289.11 1328.05 4297.89 1326.31 4307.08 1326.31C4318.31 1326.31 4327.81 1328.66 4335.57 1333.36C4343.54 1338.06 4349.46 1345.31 4353.34 1355.11C4357.43 1364.91 4359.47 1377.37 4359.47 1392.49V1489H4344.15V1393.1C4344.15 1381.26 4342.52 1371.55 4339.25 1364C4336.19 1356.23 4331.59 1350.51 4325.46 1346.84C4319.34 1342.96 4311.68 1341.02 4302.49 1341.02C4294.52 1341.02 4287.27 1342.45 4280.73 1345.31C4274.2 1347.96 4268.48 1351.64 4263.57 1356.34C4258.67 1361.03 4254.89 1366.45 4252.24 1372.57C4249.58 1378.5 4248.26 1384.83 4248.26 1391.57V1489H4240.6C4240.39 1489 4239.68 1489 4238.45 1489C4237.43 1489 4235.59 1489 4232.94 1489Z" fill="#FFFFFF"/>
<line x1="92" y1="1400" x2="1827" y2="1400" stroke="#2563EB" stroke-width="20"/>
</svg>
