<svg width="81" height="27" viewBox="0 0 81 27" fill="none" xmlns="http://www.w3.org/2000/svg">
<path d="M66.2285 26.9997C62.6721 26.9997 59.7788 24.1064 59.7788 20.5509C59.7788 16.9954 62.6721 14.1021 66.2285 14.1021C69.784 14.1021 72.6773 16.9954 72.6773 20.5509C72.6773 24.1064 69.784 26.9997 66.2285 26.9997ZM66.2285 15.8798C63.6525 15.8798 61.5566 17.9749 61.5566 20.5509C61.5566 23.1269 63.6517 25.2219 66.2285 25.2219C68.8036 25.2219 70.8996 23.1269 70.8996 20.5509C70.8996 17.9749 68.8045 15.8798 66.2285 15.8798Z" fill="black"/>
<path d="M17.9679 26.9997C14.4123 26.9997 11.519 24.1064 11.519 20.5509C11.519 16.9954 14.4123 14.1021 17.9679 14.1021C21.5234 14.1021 24.4167 16.9954 24.4167 20.5509C24.4167 24.1064 21.5234 26.9997 17.9679 26.9997ZM17.9679 15.8798C15.3919 15.8798 13.2968 17.9749 13.2968 20.5509C13.2968 23.1269 15.3919 25.2219 17.9679 25.2219C20.543 25.2219 22.6389 23.1269 22.6389 20.5509C22.6389 17.9749 20.543 15.8798 17.9679 15.8798Z" fill="black"/>
<path d="M12.922 23.7742C12.85 23.7742 12.7762 23.7653 12.7025 23.7476L2.41367 21.1369C1.1079 20.8054 0.288355 19.5103 0.547908 18.1885L2.02523 10.6846C2.40389 8.75838 4.10432 7.36017 6.06696 7.36017H8.28294C9.60382 7.36017 10.9194 7.03395 12.0882 6.41707L17.6331 3.48999C20.977 1.72467 24.7423 0.792236 28.5219 0.792236H37.992C41.5493 0.792236 45.0577 1.73623 48.135 3.52199L55.6007 7.85439L76.684 12.1228C78.8947 12.5699 80.5 14.5325 80.5 16.7885V20.0116C80.5 21.5885 79.3169 22.9067 77.748 23.0765L71.3703 23.7689C70.8761 23.8196 70.4432 23.4685 70.3899 22.9813C70.3365 22.4925 70.6894 22.0542 71.1774 22.0009L77.556 21.3085C78.2218 21.2374 78.7222 20.6791 78.7222 20.0116V16.7885C78.7222 15.3752 77.7169 14.145 76.332 13.865L55.1056 9.56815C55.0114 9.54948 54.9198 9.51393 54.8354 9.46593L47.2425 5.05975C44.4364 3.43132 41.2373 2.57 37.992 2.57H28.5219C25.0294 2.57 21.5513 3.43221 18.4624 5.06242L12.9176 7.9895C11.4945 8.7406 9.89182 9.13793 8.28294 9.13793H6.06696C4.95142 9.13793 3.98521 9.93259 3.76921 11.0277L2.29278 18.5307C2.21545 18.9254 2.45989 19.3138 2.851 19.4125L13.1398 22.024C13.6153 22.1458 13.9033 22.6294 13.7824 23.1049C13.6811 23.5076 13.3184 23.7742 12.922 23.7742Z" fill="black"/>
<path d="M61.1816 23.7743H23.0149C22.5242 23.7743 22.126 23.377 22.126 22.8855C22.126 22.3939 22.5242 21.9966 23.0149 21.9966H61.1816C61.6731 21.9966 62.0705 22.3939 62.0705 22.8855C62.0705 23.377 61.6722 23.7743 61.1816 23.7743Z" fill="black"/>
<path d="M48.0219 11.3175H22.5333C20.1155 11.3175 17.776 10.6037 15.7707 9.25261L13.0241 7.40285C12.617 7.12818 12.5085 6.57619 12.7832 6.16908C13.0578 5.76197 13.6098 5.65353 14.0169 5.9282L16.7636 7.77796C18.4747 8.92994 20.4702 9.53971 22.5333 9.53971H48.0219C50.0673 9.53971 52.0557 9.12728 53.9312 8.31306L54.9276 7.88107C55.3756 7.6864 55.9019 7.89351 56.0956 8.34328C56.2912 8.79394 56.0841 9.3175 55.6334 9.51216L54.6379 9.94416C52.5383 10.8553 50.3117 11.3175 48.0219 11.3175Z" fill="black"/>
<path d="M35.519 11.3174C35.111 11.3174 34.743 11.0348 34.6514 10.6196L32.7208 1.87218C32.615 1.39308 32.9181 0.918415 33.3972 0.812638C33.8736 0.704195 34.351 1.00997 34.4567 1.48908L36.3874 10.2365C36.4932 10.7156 36.1901 11.1903 35.711 11.2961C35.6478 11.3112 35.583 11.3174 35.519 11.3174Z" fill="black"/>
<path d="M66.2238 21.4429C65.9927 21.4429 65.7705 21.3451 65.6025 21.1753C65.5127 21.0953 65.4505 20.9984 65.4061 20.8918C65.3616 20.7851 65.335 20.6695 65.335 20.554C65.335 20.4918 65.3447 20.4375 65.3536 20.3762C65.3714 20.322 65.3892 20.2695 65.407 20.2073C65.4336 20.154 65.4612 20.1104 65.487 20.0562C65.5225 20.0118 65.5581 19.9673 65.6034 19.9238C65.6834 19.8429 65.7803 19.7718 65.887 19.7273C66.2158 19.5949 66.6158 19.674 66.8558 19.9238C67.0247 20.0838 67.1136 20.314 67.1136 20.5549C67.1136 20.6704 67.0958 20.786 67.0523 20.8926C67.0069 20.9993 66.9367 21.0962 66.8558 21.1762C66.7758 21.266 66.6789 21.3273 66.5723 21.3726C66.4558 21.4162 66.3492 21.4429 66.2238 21.4429Z" fill="black"/>
<path d="M17.9675 21.4428C17.8519 21.4428 17.7364 21.4162 17.6297 21.3717C17.5231 21.3264 17.4253 21.2651 17.3364 21.1753C17.1764 21.0153 17.0786 20.7931 17.0786 20.5539C17.0786 20.4286 17.1053 20.3219 17.1497 20.2064C17.1942 20.0997 17.2564 20.0028 17.3364 19.9228C17.5853 19.674 17.9853 19.594 18.3053 19.7264C18.4208 19.7708 18.5186 19.842 18.5986 19.9228C18.7586 20.0908 18.8564 20.3131 18.8564 20.5539C18.8564 20.7851 18.7675 21.0073 18.5986 21.1753C18.4297 21.3451 18.2075 21.4428 17.9675 21.4428Z" fill="black"/>
</svg>
