<svg width="81" height="28" viewBox="0 0 81 28" fill="none" xmlns="http://www.w3.org/2000/svg">
<path d="M67.2024 28.0001C63.4344 28.0001 60.3687 24.9343 60.3687 21.1663C60.3687 17.3983 63.4335 14.3325 67.2024 14.3325C70.9713 14.3325 74.0362 17.3974 74.0362 21.1663C74.0362 24.9352 70.9704 28.0001 67.2024 28.0001ZM67.2024 16.1103C64.4149 16.1103 62.1464 18.3787 62.1464 21.1663C62.1464 23.9547 64.4149 26.2223 67.2024 26.2223C69.9909 26.2223 72.2584 23.9539 72.2584 21.1663C72.2593 18.3787 69.9909 16.1103 67.2024 16.1103Z" fill="black"/>
<path d="M17.5027 28.0001C13.7347 28.0001 10.6689 24.9343 10.6689 21.1663C10.6689 17.3983 13.7347 14.3325 17.5027 14.3325C21.2707 14.3325 24.3365 17.3974 24.3365 21.1663C24.3365 24.9352 21.2707 28.0001 17.5027 28.0001ZM17.5027 16.1103C14.7152 16.1103 12.4467 18.3787 12.4467 21.1663C12.4467 23.9547 14.7152 26.2223 17.5027 26.2223C20.2903 26.2223 22.5587 23.9539 22.5587 21.1663C22.5587 18.3787 20.2903 16.1103 17.5027 16.1103Z" fill="black"/>
<path d="M12.1071 24.5513C12.0227 24.5513 11.9373 24.5388 11.852 24.5139L2.572 21.7415C1.33289 21.3708 0.5 20.2535 0.5 18.9593V13.2641C0.5 11.6757 1.02622 10.1015 1.98178 8.83214L6.86267 2.3477C7.92222 0.940586 9.60578 0.100586 11.3676 0.100586H39.0636C42.7596 0.100586 46.4022 1.08103 49.5978 2.93525L57.732 7.65525L73.6902 11.4393C77.7 12.3913 80.5 15.9326 80.5 20.0526V20.6028C80.5 22.2366 79.2787 23.6375 77.66 23.8606L72.7196 24.5433C72.228 24.6161 71.7836 24.2695 71.7178 23.7841C71.6502 23.2979 71.9907 22.849 72.4769 22.7824L77.4173 22.0997C78.1604 21.9966 78.7222 21.3539 78.7222 20.6028V20.0526C78.7222 16.7601 76.484 13.9299 73.2804 13.1699L57.1942 9.3557C57.1089 9.33614 57.028 9.30325 56.9533 9.2597L48.7053 4.47392C45.7809 2.77703 42.4467 1.88014 39.0636 1.88014H11.3676C10.1622 1.88014 9.00844 2.45525 8.28311 3.41881L3.40222 9.90325C2.67689 10.8659 2.27778 12.0597 2.27778 13.265V18.9601C2.27778 19.4615 2.60044 19.8953 3.08133 20.0393L12.3604 22.8117C12.8307 22.9521 13.0982 23.4473 12.9578 23.9175C12.8431 24.3024 12.4902 24.5513 12.1071 24.5513Z" fill="black"/>
<path d="M61.8077 24.5512H22.9001C22.4095 24.5512 22.0112 24.1539 22.0112 23.6623C22.0112 23.1708 22.4095 22.7734 22.9001 22.7734H61.8077C62.2992 22.7734 62.6966 23.1708 62.6966 23.6623C62.6966 24.1539 62.2983 24.5512 61.8077 24.5512Z" fill="black"/>
<path d="M50.2768 11.2321H11.6475C10.683 11.2321 9.82257 10.7317 9.34612 9.89254C8.86968 9.05343 8.88035 8.05877 9.37368 7.22943L13.363 0.53521C13.6137 0.112987 14.1595 -0.0247905 14.5817 0.226765C15.0039 0.478321 15.1417 1.02321 14.8901 1.44543L10.9008 8.13965C10.667 8.53165 10.8163 8.88188 10.8919 9.01432C10.9675 9.14588 11.1915 9.45432 11.6483 9.45432H50.2777C52.0483 9.45432 53.771 9.09699 55.395 8.3921L57.0457 7.67565C57.4963 7.4801 58.0208 7.68721 58.2146 8.13788C58.411 8.58765 58.203 9.11121 57.7532 9.30676L56.1026 10.0232C54.2528 10.8259 52.2928 11.2321 50.2768 11.2321Z" fill="black"/>
<path d="M67.2024 22.0596C67.0868 22.0596 66.9713 22.0329 66.8646 21.9885C66.749 21.944 66.6601 21.8818 66.5713 21.7929C66.4024 21.624 66.3135 21.4018 66.3135 21.1707C66.3135 20.9307 66.4104 20.6996 66.5713 20.5396C66.909 20.2018 67.5046 20.2107 67.8335 20.5396C67.869 20.5751 67.9046 20.6196 67.9401 20.6729C67.9757 20.7173 68.0015 20.7698 68.0201 20.824C68.0468 20.8773 68.0646 20.9396 68.0735 20.992C68.0833 21.0462 68.0921 21.1076 68.0921 21.1698C68.0921 21.4009 68.0024 21.6231 67.8344 21.792C67.7446 21.8809 67.6477 21.9431 67.541 21.9876C67.4344 22.032 67.3179 22.0596 67.2024 22.0596Z" fill="black"/>
<path d="M17.5046 22.0597C17.2646 22.0597 17.0424 21.9619 16.8735 21.793C16.7046 21.6241 16.6157 21.4019 16.6157 21.1619C16.6157 20.9308 16.7046 20.6988 16.8735 20.5397C16.9535 20.4508 17.0513 20.3886 17.1668 20.3441C17.4957 20.2108 17.8868 20.2899 18.1268 20.5397C18.2957 20.6997 18.3935 20.9308 18.3935 21.1619C18.3935 21.4019 18.2957 21.6241 18.1268 21.793C17.9579 21.961 17.7357 22.0597 17.5046 22.0597Z" fill="black"/>
<path d="M39.0467 11.2329C38.66 11.2329 38.3044 10.9778 38.1924 10.5876L35.5213 1.2347C35.3862 0.762696 35.66 0.27114 36.132 0.136029C36.6031 -0.000859722 37.0955 0.273807 37.2307 0.746696L39.9018 10.0996C40.0369 10.5716 39.7631 11.0631 39.2911 11.1983C39.2093 11.2214 39.1275 11.2329 39.0467 11.2329Z" fill="black"/>
<path d="M19.4503 11.233C19.3383 11.233 19.2237 11.2116 19.1134 11.1654C18.6592 10.9787 18.4423 10.4596 18.629 10.0054L22.4725 0.652506C22.6583 0.198284 23.1792 -0.0203825 23.6325 0.168062C24.0868 0.354729 24.3037 0.87384 24.117 1.32806L20.2734 10.681C20.1321 11.025 19.8005 11.233 19.4503 11.233Z" fill="black"/>
</svg>
