<svg width="81" height="36" viewBox="0 0 81 36" fill="none" xmlns="http://www.w3.org/2000/svg">
<path d="M67.5609 36C63.4924 36 60.1821 32.6897 60.1821 28.6221C60.1821 24.5544 63.4924 21.2441 67.5609 21.2441C71.6286 21.2441 74.9388 24.5544 74.9388 28.6221C74.9388 32.6897 71.6286 36 67.5609 36ZM67.5609 23.022C64.472 23.022 61.9599 25.534 61.9599 28.6221C61.9599 31.7101 64.472 34.2222 67.5609 34.2222C70.649 34.2222 73.161 31.7101 73.161 28.6221C73.161 25.534 70.6481 23.022 67.5609 23.022Z" fill="black"/>
<path d="M16.2222 36C12.1536 36 8.84424 32.6897 8.84424 28.6221C8.84424 24.5544 12.1545 21.2441 16.2222 21.2441C20.2898 21.2441 23.6001 24.5544 23.6001 28.6221C23.6001 32.6897 20.2907 36 16.2222 36ZM16.2222 23.022C13.1341 23.022 10.622 25.534 10.622 28.6221C10.622 31.7101 13.1341 34.2222 16.2222 34.2222C19.3102 34.2222 21.8223 31.7101 21.8223 28.6221C21.8223 25.534 19.3093 23.022 16.2222 23.022Z" fill="black"/>
<path d="M10.3313 32.2347C10.2237 32.2347 10.1144 32.2161 10.0077 32.1743L3.9294 29.7983C1.8458 28.9849 0.5 27.0133 0.5 24.7768V16.9313C0.5 15.9598 0.762227 15.006 1.26001 14.1713L7.73036 3.30709C8.62993 1.79595 10.2815 0.858154 12.0398 0.858154H47.0778C48.8965 0.858154 50.6334 1.63595 51.845 2.99153L57.2868 9.07964L74.3485 10.573C77.0437 10.8086 79.2055 12.933 79.4873 15.6238L80.4642 24.9351C80.8233 28.3556 78.4446 31.4561 75.0463 31.993L73.5858 32.2241C73.1031 32.2961 72.6462 31.969 72.5689 31.4836C72.4925 30.9992 72.824 30.544 73.3094 30.4667L74.769 30.2365C77.2312 29.8471 78.9566 27.5991 78.6961 25.1199L77.7192 15.8087C77.5246 13.9624 76.0419 12.5055 74.1929 12.3437L56.7828 10.8201C56.5571 10.8006 56.3482 10.6957 56.1979 10.5268L50.5205 4.17555C49.6458 3.19598 48.3907 2.63508 47.0787 2.63508H12.0398C10.9046 2.63508 9.83795 3.24131 9.25839 4.21644L2.78715 15.0806C2.45381 15.6407 2.27781 16.2807 2.27781 16.9313V24.7768C2.27781 26.2764 3.18005 27.5973 4.57652 28.1422L10.6557 30.5183C11.1126 30.6969 11.3384 31.2125 11.1598 31.6703C11.0229 32.0205 10.6869 32.2347 10.3313 32.2347Z" fill="black"/>
<path d="M61.6711 32.2348H22.113C21.6224 32.2348 21.2241 31.8375 21.2241 31.3459C21.2241 30.8544 21.6224 30.457 22.113 30.457H61.6711C62.1627 30.457 62.56 30.8544 62.56 31.3459C62.56 31.8375 62.1618 32.2348 61.6711 32.2348Z" fill="black"/>
<path d="M50.4626 14.7855H10.1267C9.81828 14.7855 9.53294 14.6255 9.37027 14.3632C9.2076 14.101 9.19338 13.7739 9.33205 13.4983L15.4157 1.34877C15.6362 0.909656 16.1704 0.731875 16.6086 0.952324C17.0478 1.17188 17.2255 1.70611 17.0051 2.14523L11.5659 13.0077H50.4626C51.372 13.0077 52.2555 12.6832 52.948 12.0948L56.284 9.25826C56.6556 8.94092 57.2192 8.98448 57.5365 9.35959C57.8539 9.73382 57.8094 10.2947 57.4352 10.613L54.0991 13.4494C53.0849 14.3108 51.7933 14.7855 50.4626 14.7855Z" fill="black"/>
<path d="M67.5588 29.5137C67.3188 29.5137 67.0966 29.4159 66.9277 29.247C66.7677 29.0781 66.6699 28.8559 66.6699 28.6248C66.6699 28.5003 66.6966 28.3937 66.741 28.2781C66.7855 28.1715 66.8477 28.0737 66.9277 27.9937C66.973 27.9492 67.0175 27.9137 67.0699 27.887C67.1144 27.8514 67.1677 27.8248 67.221 27.7981C67.2753 27.7794 67.3277 27.7626 67.3899 27.7537C67.6735 27.6914 67.9855 27.7892 68.1891 27.9937C68.27 28.0737 68.3313 28.1715 68.3757 28.2781C68.4211 28.3937 68.4468 28.5003 68.4468 28.6248C68.4468 28.8559 68.358 29.0781 68.1891 29.247C68.1002 29.3359 68.0024 29.3981 67.8957 29.4426C67.7899 29.487 67.6744 29.5137 67.5588 29.5137Z" fill="black"/>
<path d="M16.2248 29.5138C15.9848 29.5138 15.7626 29.416 15.5937 29.2471C15.4248 29.0871 15.3359 28.856 15.3359 28.6249C15.3359 28.5004 15.3537 28.3938 15.3982 28.2782C15.4426 28.1715 15.5137 28.0737 15.5937 27.9937C15.9226 27.6648 16.5182 27.6648 16.8471 27.9937C17.016 28.1537 17.1137 28.3849 17.1137 28.6249C17.1137 28.856 17.016 29.0782 16.8471 29.2471C16.7671 29.336 16.6693 29.3982 16.5626 29.4427C16.456 29.4871 16.3404 29.5138 16.2248 29.5138Z" fill="black"/>
<path d="M38.7674 14.7853C38.3656 14.7853 38.0021 14.5116 37.9043 14.1035L34.9887 1.95399C34.874 1.47753 35.1674 0.997524 35.6456 0.882855C36.1256 0.769964 36.6029 1.06241 36.7176 1.53976L39.6332 13.6893C39.7479 14.1667 39.4537 14.6467 38.9763 14.7613C38.9061 14.7782 38.8359 14.7853 38.7674 14.7853Z" fill="black"/>
<path d="M20.2886 14.7865C20.1926 14.7865 20.0949 14.7705 19.998 14.7376C19.534 14.5776 19.2877 14.0709 19.4477 13.6069L23.6434 1.45735C23.8034 0.994234 24.3083 0.747119 24.7741 0.907122C25.2381 1.06712 25.4843 1.5738 25.3243 2.03781L21.1287 14.1874C21.0015 14.5554 20.6575 14.7865 20.2886 14.7865Z" fill="black"/>
</svg>
