<svg width="81" height="39" viewBox="0 0 81 39" fill="none" xmlns="http://www.w3.org/2000/svg">
<path d="M68.229 39.0002C64.4726 39.0002 61.4175 35.9441 61.4175 32.1886C61.4175 28.433 64.4735 25.3779 68.229 25.3779C71.9846 25.3779 75.0406 28.4339 75.0406 32.1886C75.0406 35.9441 71.9855 39.0002 68.229 39.0002ZM68.229 27.1548C65.453 27.1548 63.1953 29.4126 63.1953 32.1877C63.1953 34.9637 65.453 37.2215 68.229 37.2215C71.005 37.2215 73.2628 34.9637 73.2628 32.1877C73.2628 29.4135 71.005 27.1548 68.229 27.1548Z" fill="black"/>
<path d="M17.9746 39.0002C14.2182 39.0002 11.1631 35.9441 11.1631 32.1886C11.1631 28.433 14.2191 25.3779 17.9746 25.3779C21.7302 25.3779 24.7862 28.4339 24.7862 32.1886C24.7862 35.9441 21.7302 39.0002 17.9746 39.0002ZM17.9746 27.1548C15.1986 27.1548 12.9409 29.4126 12.9409 32.1877C12.9409 34.9637 15.1995 37.2215 17.9746 37.2215C20.7498 37.2215 23.0084 34.9637 23.0084 32.1877C23.0084 29.4135 20.7498 27.1548 17.9746 27.1548Z" fill="black"/>
<path d="M5.02978 33.0997C2.53111 33.0997 0.5 31.0695 0.5 28.5726V5.20723C0.5 2.8339 2.43067 0.902344 4.80489 0.902344H53.7471C56.4964 0.902344 59.0804 2.11479 60.8378 4.22857L69.7169 14.913C70.0316 15.2908 69.9791 15.8508 69.6022 16.1646C69.2218 16.4783 68.6627 16.425 68.3507 16.049L59.4707 5.36457C58.052 3.65879 55.9667 2.67923 53.748 2.67923H4.80489C3.41111 2.68012 2.27778 3.81346 2.27778 5.20723V28.5735C2.27778 30.089 3.51067 31.3228 5.02711 31.3228L12.0484 31.3006H12.0511C12.5409 31.3006 12.9382 31.6961 12.94 32.1868C12.9418 32.6775 12.5453 33.0766 12.0538 33.0783L5.02978 33.0997Z" fill="black"/>
<path d="M77.7595 33.0998L74.1417 33.0776C73.6511 33.0714 73.2573 32.6696 73.2635 32.178C73.2697 31.6874 73.6751 31.2776 74.1631 31.2998L77.7604 31.322C78.292 31.322 78.7231 30.8909 78.7231 30.3594V22.0874C78.7231 21.3798 78.308 20.7327 77.6662 20.4367L68.8386 16.37H51.436C49.9151 16.37 48.6777 15.1327 48.6777 13.6127V1.9487C48.6777 1.45804 49.0751 1.05981 49.5666 1.05981C50.0582 1.05981 50.4555 1.45804 50.4555 1.9487V13.6127C50.4555 14.1531 50.8946 14.5923 51.436 14.5923H69.0333C69.1622 14.5923 69.2884 14.6198 69.4057 14.674L78.4093 18.8225C79.6786 19.4065 80.5 20.6891 80.5 22.0874V30.3594C80.5 31.8705 79.2706 33.0998 77.7595 33.0998Z" fill="black"/>
<path d="M62.3061 33.0776H23.8972C23.4065 33.0776 23.0083 32.6802 23.0083 32.1887C23.0083 31.6971 23.4065 31.2998 23.8972 31.2998H62.3061C62.7976 31.2998 63.195 31.6971 63.195 32.1887C63.195 32.6802 62.7976 33.0776 62.3061 33.0776Z" fill="black"/>
<path d="M68.2336 33.0801C67.9927 33.0801 67.7705 32.9833 67.6025 32.8135C67.4336 32.6455 67.335 32.4233 67.335 32.1913C67.335 31.9513 67.4327 31.721 67.6025 31.5601C67.9305 31.2313 68.527 31.2313 68.855 31.5601C69.0238 31.729 69.1127 31.9513 69.1127 32.1913C69.1127 32.4233 69.0238 32.6455 68.855 32.8135C68.775 32.9024 68.6781 32.9646 68.5714 33.009C68.4647 33.0535 68.3492 33.0801 68.2336 33.0801Z" fill="black"/>
<path d="M17.9753 33.0801C17.7353 33.0801 17.5131 32.9833 17.3442 32.8135C17.1753 32.6535 17.0864 32.4313 17.0864 32.1913C17.0864 32.0757 17.1131 31.9601 17.1575 31.8446C17.202 31.7379 17.2642 31.6401 17.3442 31.5601C17.6731 31.2313 18.2686 31.2313 18.6064 31.5601C18.6864 31.6401 18.7486 31.7379 18.7931 31.8446C18.8375 31.9601 18.8642 32.0757 18.8642 32.1913C18.8642 32.3068 18.8375 32.4233 18.7931 32.529C18.7486 32.6357 18.6864 32.7335 18.6064 32.8135C18.4375 32.9824 18.2153 33.0801 17.9753 33.0801Z" fill="black"/>
</svg>
