<svg width="81" height="30" viewBox="0 0 81 30" fill="none" xmlns="http://www.w3.org/2000/svg">
<path d="M64.5595 29.9998C60.6003 29.9998 57.3799 26.7793 57.3799 22.8202C57.3799 18.8611 60.6003 15.6406 64.5595 15.6406C68.5186 15.6406 71.7391 18.8611 71.7391 22.8202C71.7391 26.7793 68.5186 29.9998 64.5595 29.9998ZM64.5595 17.4175C61.5808 17.4175 59.1577 19.8415 59.1577 22.8193C59.1577 25.7971 61.5817 28.2211 64.5595 28.2211C67.5373 28.2211 69.9613 25.7971 69.9613 22.8193C69.9613 19.8415 67.5373 17.4175 64.5595 17.4175Z" fill="black"/>
<path d="M15.6796 29.9998C11.7205 29.9998 8.5 26.7793 8.5 22.8202C8.5 18.8611 11.7205 15.6406 15.6796 15.6406C19.6387 15.6406 22.8592 18.8611 22.8592 22.8202C22.8592 26.7793 19.6387 29.9998 15.6796 29.9998ZM15.6796 17.4175C12.7009 17.4175 10.2778 19.8415 10.2778 22.8193C10.2778 25.7971 12.7009 28.2211 15.6796 28.2211C18.6583 28.2211 21.0814 25.7971 21.0814 22.8193C21.0814 19.8415 18.6583 17.4175 15.6796 17.4175Z" fill="black"/>
<path d="M9.9703 26.3499C9.86986 26.3499 9.76675 26.3322 9.66719 26.2957L2.2476 23.6006C0.744483 23.0557 -0.138188 21.4646 0.195147 19.9001L1.9196 11.8041C2.26182 10.2005 3.57916 8.95075 5.19784 8.69298L12.6121 7.51519C13.0956 7.43964 13.5525 7.76853 13.6299 8.25386C13.7063 8.73831 13.3757 9.19431 12.8912 9.27165L5.47517 10.4494C4.57739 10.5917 3.84672 11.285 3.65739 12.1748L1.93293 20.2699C1.7836 20.9713 2.17916 21.685 2.85383 21.9295L10.2734 24.6255C10.7348 24.7926 10.973 25.3028 10.8059 25.7642C10.6743 26.1259 10.333 26.3499 9.9703 26.3499Z" fill="black"/>
<path d="M70.2678 26.35C69.8198 26.35 69.434 26.0122 69.3851 25.5571C69.3318 25.0682 69.6847 24.63 70.1727 24.5766L76.6918 23.8682C77.2083 23.8122 77.6643 23.5535 77.9754 23.1384C78.2874 22.7242 78.4092 22.214 78.3194 21.7037C77.4856 16.9517 73.7149 13.3108 68.9371 12.6432L52.0517 10.2868C51.8784 10.2628 51.7157 10.1872 51.585 10.0708C48.2081 7.06989 43.6961 4.45476 38.1725 2.29742C37.7148 2.11875 37.489 1.6032 37.6676 1.1463C37.8463 0.689413 38.3601 0.464525 38.8188 0.641414C44.4295 2.83342 49.0508 5.49744 52.5619 8.56323L69.1842 10.8832C74.7283 11.6575 79.1034 15.8824 80.0714 21.3962C80.2438 22.382 79.9985 23.4068 79.3967 24.2068C78.7949 25.0069 77.8794 25.5277 76.8838 25.6353L70.3656 26.3438C70.3318 26.3482 70.2998 26.35 70.2678 26.35Z" fill="black"/>
<path d="M58.8497 26.3501H21.3908C20.9002 26.3501 20.502 25.9527 20.502 25.4612C20.502 24.9696 20.9002 24.5723 21.3908 24.5723H58.8497C59.3412 24.5723 59.7386 24.9696 59.7386 25.4612C59.7386 25.9527 59.3403 26.3501 58.8497 26.3501Z" fill="black"/>
<path d="M43.9572 12.1392C43.767 12.1392 43.5768 12.1365 43.3865 12.1312L25.9367 11.4539C24.1625 11.4023 22.3713 11.2005 20.6229 10.8547L12.5784 9.2654C12.0966 9.17029 11.7837 8.70273 11.8788 8.22095C11.974 7.74006 12.4415 7.42628 12.9233 7.52139L20.9678 9.11073C22.6202 9.43695 24.3127 9.62807 25.9971 9.67696L43.4479 10.3543C46.0799 10.429 48.7688 9.91518 51.1972 8.86095L51.8204 8.59073C52.2684 8.39517 52.7937 8.60229 52.9884 9.05295C53.1839 9.50362 52.9768 10.0272 52.5261 10.2218L51.9039 10.4921C49.4132 11.5739 46.6772 12.1392 43.9572 12.1392Z" fill="black"/>
<path d="M64.5608 23.7084C64.3199 23.7084 64.0977 23.6196 63.9297 23.4507C63.7608 23.2827 63.6719 23.0604 63.6719 22.8195C63.6719 22.704 63.6897 22.5884 63.7332 22.4818C63.7777 22.3751 63.8488 22.2773 63.9297 22.1884C64.0097 22.1084 64.1065 22.0462 64.2132 22.0018C64.551 21.8595 64.9421 21.9395 65.1821 22.1884C65.2719 22.2773 65.3332 22.3751 65.3786 22.4818C65.423 22.5884 65.4497 22.704 65.4497 22.8195C65.4497 23.0604 65.3519 23.2827 65.1821 23.4507C65.1021 23.5307 65.0052 23.5929 64.8986 23.6373C64.791 23.6809 64.6754 23.7084 64.5608 23.7084Z" fill="black"/>
<path d="M15.6789 23.7081C15.4389 23.7081 15.2167 23.6192 15.0478 23.4503C14.9678 23.3614 14.9056 23.2636 14.8612 23.157C14.8167 23.0503 14.79 22.9347 14.79 22.8192C14.79 22.7036 14.8167 22.5881 14.8612 22.4814C14.9056 22.3747 14.9678 22.2681 15.0478 22.1881C15.3856 21.8592 15.9723 21.8592 16.31 22.1881C16.47 22.357 16.5678 22.5881 16.5678 22.8192C16.5678 22.9347 16.55 23.0503 16.5056 23.157C16.4612 23.2636 16.39 23.3614 16.31 23.4503C16.1412 23.6192 15.9189 23.7081 15.6789 23.7081Z" fill="black"/>
<path d="M34.4738 11.7285C34.1164 11.7285 33.7795 11.5107 33.6435 11.1569L31.9929 6.84492C31.8177 6.38625 32.0471 5.87247 32.5058 5.69647C32.9635 5.52136 33.4782 5.7507 33.6542 6.20936L35.3049 10.5214C35.48 10.9801 35.2507 11.4938 34.792 11.6698C34.6871 11.7089 34.5795 11.7285 34.4738 11.7285Z" fill="black"/>
<path d="M22.9295 11.2175C22.5633 11.2175 22.221 10.99 22.0922 10.6255L20.8104 7.01131C20.6459 6.54819 20.8877 6.04063 21.3508 5.87619C21.8139 5.71174 22.3215 5.95441 22.4859 6.41663L23.7677 10.0309C23.9322 10.494 23.6904 11.0015 23.2273 11.166C23.1277 11.2007 23.0273 11.2175 22.9295 11.2175Z" fill="black"/>
</svg>
