<svg width="81" height="30" viewBox="0 0 81 30" fill="none" xmlns="http://www.w3.org/2000/svg">
<path d="M67.1864 30.0001C63.2495 30.0001 60.0469 26.7966 60.0469 22.8597C60.0469 18.9228 63.2504 15.7192 67.1864 15.7192C71.1242 15.7192 74.3269 18.9228 74.3269 22.8597C74.3269 26.7966 71.1242 30.0001 67.1864 30.0001ZM67.1864 17.497C64.23 17.497 61.8247 19.9023 61.8247 22.8597C61.8247 25.817 64.23 28.2223 67.1864 28.2223C70.1438 28.2223 72.5491 25.817 72.5491 22.8597C72.5491 19.9023 70.1438 17.497 67.1864 17.497Z" fill="black"/>
<path d="M15.6868 30.0001C11.749 30.0001 8.54639 26.7966 8.54639 22.8597C8.54639 18.9228 11.7499 15.7192 15.6868 15.7192C19.6237 15.7192 22.8273 18.9228 22.8273 22.8597C22.8273 26.7966 19.6237 30.0001 15.6868 30.0001ZM15.6868 17.497C12.7295 17.497 10.3242 19.9023 10.3242 22.8597C10.3242 25.817 12.7304 28.2223 15.6868 28.2223C18.6433 28.2223 21.0495 25.817 21.0495 22.8597C21.0495 19.9023 18.6433 17.497 15.6868 17.497Z" fill="black"/>
<path d="M10.0122 26.3734C9.91174 26.3734 9.80863 26.3557 9.70908 26.3192L2.76331 23.7965C1.00331 23.1574 -0.0695774 21.4126 0.154422 19.5539L1.06553 11.9894C1.32953 9.7939 3.1962 8.1379 5.40864 8.1379H7.42197C8.41841 8.1379 9.37041 7.76545 10.102 7.08901C14.5233 3.00368 20.2735 0.753906 26.2931 0.753906H35.8033C41.3535 0.753906 46.8237 2.22591 51.6237 5.01168L57.981 8.70056L71.2619 12.1068C76.4806 13.4446 80.125 18.1406 80.125 23.5281C80.125 24.5112 79.4201 25.3379 78.4486 25.4925L72.9997 26.3628C72.517 26.4445 72.0583 26.1094 71.9819 25.625C71.9046 25.1405 72.2343 24.6845 72.7197 24.6072L78.1686 23.737C78.2717 23.7201 78.3463 23.633 78.3463 23.5281C78.3463 18.9539 75.2521 14.9646 70.8201 13.8286L57.4192 10.3921C57.3401 10.3717 57.2637 10.3406 57.1935 10.2997L50.7304 6.54946C46.2015 3.92101 41.0397 2.53257 35.8024 2.53257H26.2931C20.7215 2.53257 15.4006 4.61524 11.3082 8.39568C10.2469 9.37701 8.86641 9.91656 7.42108 9.91656H5.40864C4.09486 9.91656 2.98642 10.8997 2.82997 12.2028L1.91886 19.7663C1.79442 20.801 2.39086 21.7717 3.36953 22.1272L10.3153 24.6499C10.7766 24.817 11.0149 25.3272 10.8477 25.7885C10.7171 26.1494 10.3757 26.3734 10.0122 26.3734Z" fill="black"/>
<path d="M61.5136 26.3735H21.3625C20.8719 26.3735 20.4736 25.9761 20.4736 25.4846C20.4736 24.993 20.8719 24.5957 21.3625 24.5957H61.5136C62.0051 24.5957 62.4025 24.993 62.4025 25.4846C62.4025 25.9761 62.0043 26.3735 61.5136 26.3735Z" fill="black"/>
<path d="M50.3377 12.3672H23.8844C21.9777 12.3672 20.2488 11.4774 19.1404 9.92627C18.0319 8.37516 17.751 6.45161 18.3688 4.64805L19.199 2.22406C19.3582 1.75917 19.863 1.51117 20.3279 1.67117C20.7919 1.83028 21.0399 2.33606 20.8808 2.80006L20.0506 5.22405C19.6213 6.47738 19.8168 7.81516 20.5875 8.89249C21.3582 9.97072 22.5599 10.5894 23.8853 10.5894H50.3386C52.0835 10.5894 53.7794 10.2374 55.3794 9.54316L57.287 8.7156C57.7377 8.52094 58.2621 8.72716 58.4559 9.17783C58.6514 9.62849 58.4443 10.152 57.9946 10.3467L56.087 11.1743C54.2621 11.9654 52.3288 12.3672 50.3377 12.3672Z" fill="black"/>
<path d="M37.0589 12.6123C36.7123 12.6123 36.3834 12.4088 36.2403 12.0701L32.0705 2.23546C31.8794 1.7839 32.0901 1.26212 32.5425 1.07012C32.9923 0.879903 33.5167 1.08968 33.7078 1.54212L37.8776 11.3768C38.0687 11.8283 37.858 12.3501 37.4056 12.5421C37.2927 12.5892 37.1745 12.6123 37.0589 12.6123Z" fill="black"/>
<path d="M67.1819 23.7502C67.0663 23.7502 66.9507 23.7235 66.8441 23.6791C66.7374 23.6347 66.6405 23.5724 66.5605 23.4835C66.4707 23.4035 66.4085 23.3058 66.3641 23.1991C66.3196 23.0924 66.293 22.9769 66.293 22.8613C66.293 22.6204 66.3907 22.3982 66.5605 22.2302C66.7641 22.0258 67.0663 21.928 67.3596 21.9893C67.4139 21.9991 67.4752 22.016 67.5285 22.0347C67.6352 22.0791 67.7321 22.1502 67.8121 22.2302C67.981 22.3982 68.0699 22.6204 68.0699 22.8613C68.0699 22.9769 68.0521 23.0924 68.0085 23.1991C67.9632 23.3058 67.9019 23.4035 67.8121 23.4835C67.7321 23.5724 67.6352 23.6347 67.5285 23.6791C67.4219 23.7235 67.3072 23.7502 67.1819 23.7502Z" fill="black"/>
<path d="M15.6897 23.7504C15.4497 23.7504 15.2274 23.6526 15.0586 23.4837C14.8897 23.3228 14.8008 23.0926 14.8008 22.8615C14.8008 22.6206 14.8897 22.3984 15.0586 22.2304C15.1386 22.1504 15.2363 22.0882 15.343 22.0348C15.6808 21.9015 16.0719 21.9806 16.3119 22.2304C16.4808 22.3984 16.5786 22.6206 16.5786 22.8615C16.5786 23.1015 16.4808 23.3237 16.3119 23.4837C16.143 23.6526 15.9208 23.7504 15.6897 23.7504Z" fill="black"/>
</svg>
