<svg width="81" height="27" viewBox="0 0 81 27" fill="none" xmlns="http://www.w3.org/2000/svg">
<path d="M66.3535 27.0002C62.7971 27.0002 59.9038 24.1069 59.9038 20.5514C59.9038 16.9958 62.7971 14.1025 66.3535 14.1025C69.909 14.1025 72.8023 16.9958 72.8023 20.5514C72.8023 24.1069 69.909 27.0002 66.3535 27.0002ZM66.3535 15.8803C63.7775 15.8803 61.6816 17.9754 61.6816 20.5514C61.6816 23.1273 63.7767 25.2224 66.3535 25.2224C68.9286 25.2224 71.0246 23.1273 71.0246 20.5514C71.0246 17.9754 68.9295 15.8803 66.3535 15.8803Z" fill="black"/>
<path d="M18.0929 27.0002C14.5373 27.0002 11.644 24.1069 11.644 20.5514C11.644 16.9958 14.5373 14.1025 18.0929 14.1025C21.6484 14.1025 24.5417 16.9958 24.5417 20.5514C24.5417 24.1069 21.6484 27.0002 18.0929 27.0002ZM18.0929 15.8803C15.5169 15.8803 13.4218 17.9754 13.4218 20.5514C13.4218 23.1273 15.5169 25.2224 18.0929 25.2224C20.668 25.2224 22.7639 23.1273 22.7639 20.5514C22.7639 17.9754 20.668 15.8803 18.0929 15.8803Z" fill="black"/>
<path d="M13.047 23.7745C12.975 23.7745 12.9012 23.7656 12.8275 23.7478L2.53867 21.1372C1.2329 20.8056 0.413355 19.5105 0.672908 18.1887L2.15023 10.6848C2.52889 8.75862 4.22932 7.36041 6.19196 7.36041H8.40794C9.72882 7.36041 11.0444 7.03419 12.2132 6.41731L17.7581 3.49023C21.102 1.72492 24.8673 0.79248 28.6469 0.79248H38.117C41.6743 0.79248 45.1827 1.73647 48.26 3.52223L55.7257 7.85463L76.809 12.123C79.0197 12.5701 80.625 14.5328 80.625 16.7888V20.0118C80.625 21.5887 79.4419 22.9069 77.873 23.0767L71.4953 23.7691C71.0011 23.8198 70.5682 23.4687 70.5149 22.9816C70.4615 22.4927 70.8144 22.0545 71.3024 22.0012L77.681 21.3087C78.3468 21.2376 78.8472 20.6794 78.8472 20.0118V16.7888C78.8472 15.3754 77.8419 14.1452 76.457 13.8652L55.2306 9.56839C55.1364 9.54973 55.0448 9.51417 54.9604 9.46617L47.3676 5.05999C44.5614 3.43156 41.3623 2.57024 38.117 2.57024H28.6469C25.1544 2.57024 21.6763 3.43245 18.5874 5.06266L13.0426 7.98974C11.6195 8.74085 10.0168 9.13817 8.40794 9.13817H6.19196C5.07642 9.13817 4.11021 9.93283 3.89421 11.0279L2.41778 18.531C2.34045 18.9256 2.58489 19.3141 2.976 19.4127L13.2648 22.0243C13.7403 22.146 14.0283 22.6296 13.9074 23.1051C13.8061 23.5078 13.4434 23.7745 13.047 23.7745Z" fill="black"/>
<path d="M61.3066 23.7748H23.1399C22.6492 23.7748 22.251 23.3775 22.251 22.886C22.251 22.3944 22.6492 21.9971 23.1399 21.9971H61.3066C61.7981 21.9971 62.1955 22.3944 62.1955 22.886C62.1955 23.3775 61.7972 23.7748 61.3066 23.7748Z" fill="black"/>
<path d="M48.1469 11.318H22.6583C20.2405 11.318 17.901 10.6042 15.8957 9.2531L13.1491 7.40334C12.742 7.12867 12.6335 6.57668 12.9082 6.16957C13.1828 5.76246 13.7348 5.65402 14.1419 5.92868L16.8886 7.77844C18.5997 8.93043 20.5952 9.5402 22.6583 9.5402H48.1469C50.1923 9.5402 52.1807 9.12776 54.0562 8.31355L55.0526 7.88155C55.5006 7.68689 56.0269 7.894 56.2206 8.34377C56.4162 8.79443 56.2091 9.31798 55.7584 9.51265L54.7629 9.94464C52.6633 10.8557 50.4367 11.318 48.1469 11.318Z" fill="black"/>
<path d="M35.644 11.3177C35.236 11.3177 34.868 11.035 34.7764 10.6199L32.8458 1.87243C32.74 1.39332 33.0431 0.918659 33.5222 0.812882C33.9986 0.704439 34.476 1.01021 34.5817 1.48932L36.5124 10.2368C36.6182 10.7159 36.3151 11.1906 35.836 11.2963C35.7728 11.3114 35.708 11.3177 35.644 11.3177Z" fill="black"/>
<path d="M66.3488 21.4431C66.1177 21.4431 65.8955 21.3453 65.7275 21.1755C65.6377 21.0955 65.5755 20.9987 65.5311 20.892C65.4866 20.7853 65.46 20.6698 65.46 20.5542C65.46 20.492 65.4697 20.4378 65.4786 20.3764C65.4964 20.3222 65.5142 20.2698 65.532 20.2076C65.5586 20.1542 65.5862 20.1107 65.612 20.0564C65.6475 20.012 65.6831 19.9676 65.7284 19.924C65.8084 19.8431 65.9053 19.772 66.012 19.7276C66.3408 19.5951 66.7408 19.6742 66.9808 19.924C67.1497 20.084 67.2386 20.3142 67.2386 20.5551C67.2386 20.6707 67.2208 20.7862 67.1773 20.8929C67.1319 20.9995 67.0617 21.0964 66.9808 21.1764C66.9008 21.2662 66.8039 21.3275 66.6973 21.3729C66.5808 21.4164 66.4742 21.4431 66.3488 21.4431Z" fill="black"/>
<path d="M18.0925 21.4428C17.9769 21.4428 17.8614 21.4162 17.7547 21.3717C17.6481 21.3264 17.5503 21.2651 17.4614 21.1753C17.3014 21.0153 17.2036 20.7931 17.2036 20.5539C17.2036 20.4286 17.2303 20.3219 17.2747 20.2064C17.3192 20.0997 17.3814 20.0028 17.4614 19.9228C17.7103 19.674 18.1103 19.594 18.4303 19.7264C18.5458 19.7708 18.6436 19.842 18.7236 19.9228C18.8836 20.0908 18.9814 20.3131 18.9814 20.5539C18.9814 20.7851 18.8925 21.0073 18.7236 21.1753C18.5547 21.3451 18.3325 21.4428 18.0925 21.4428Z" fill="black"/>
</svg>
