<svg width="81" height="39" viewBox="0 0 81 39" fill="none" xmlns="http://www.w3.org/2000/svg">
<path d="M68.104 39.0002C64.3476 39.0002 61.2925 35.9442 61.2925 32.1886C61.2925 28.433 64.3485 25.3779 68.104 25.3779C71.8596 25.3779 74.9156 28.4339 74.9156 32.1886C74.9156 35.9442 71.8605 39.0002 68.104 39.0002ZM68.104 27.1548C65.328 27.1548 63.0703 29.4126 63.0703 32.1877C63.0703 34.9637 65.328 37.2215 68.104 37.2215C70.88 37.2215 73.1378 34.9637 73.1378 32.1877C73.1378 29.4135 70.88 27.1548 68.104 27.1548Z" fill="black"/>
<path d="M17.8496 39.0002C14.0932 39.0002 11.0381 35.9442 11.0381 32.1886C11.0381 28.433 14.0941 25.3779 17.8496 25.3779C21.6052 25.3779 24.6612 28.4339 24.6612 32.1886C24.6612 35.9442 21.6052 39.0002 17.8496 39.0002ZM17.8496 27.1548C15.0736 27.1548 12.8159 29.4126 12.8159 32.1877C12.8159 34.9637 15.0745 37.2215 17.8496 37.2215C20.6248 37.2215 22.8834 34.9637 22.8834 32.1877C22.8834 29.4135 20.6248 27.1548 17.8496 27.1548Z" fill="black"/>
<path d="M4.90478 33.0997C2.40611 33.0997 0.375 31.0695 0.375 28.5726V5.20723C0.375 2.8339 2.30567 0.902344 4.67989 0.902344H53.6221C56.3714 0.902344 58.9554 2.11479 60.7128 4.22857L69.5919 14.913C69.9066 15.2908 69.8541 15.8508 69.4772 16.1646C69.0968 16.4783 68.5377 16.425 68.2257 16.049L59.3457 5.36457C57.927 3.65879 55.8417 2.67923 53.623 2.67923H4.67989C3.28611 2.68012 2.15278 3.81346 2.15278 5.20723V28.5735C2.15278 30.089 3.38567 31.3228 4.90211 31.3228L11.9234 31.3006H11.9261C12.4159 31.3006 12.8132 31.6961 12.815 32.1868C12.8168 32.6775 12.4203 33.0766 11.9288 33.0783L4.90478 33.0997Z" fill="black"/>
<path d="M77.6345 33.0996L74.0167 33.0773C73.5261 33.0711 73.1323 32.6693 73.1385 32.1778C73.1447 31.6871 73.5501 31.2773 74.0381 31.2996L77.6354 31.3218C78.167 31.3218 78.5981 30.8907 78.5981 30.3591V22.0871C78.5981 21.3796 78.183 20.7325 77.5412 20.4365L68.7136 16.3698H51.311C49.7901 16.3698 48.5527 15.1325 48.5527 13.6125V1.94846C48.5527 1.45779 48.9501 1.05957 49.4416 1.05957C49.9332 1.05957 50.3305 1.45779 50.3305 1.94846V13.6125C50.3305 14.1529 50.7696 14.592 51.311 14.592H68.9083C69.0372 14.592 69.1634 14.6196 69.2807 14.6738L78.2843 18.8222C79.5536 19.4062 80.375 20.6889 80.375 22.0871V30.3591C80.375 31.8702 79.1456 33.0996 77.6345 33.0996Z" fill="black"/>
<path d="M62.1811 33.0776H23.7722C23.2815 33.0776 22.8833 32.6802 22.8833 32.1887C22.8833 31.6971 23.2815 31.2998 23.7722 31.2998H62.1811C62.6726 31.2998 63.07 31.6971 63.07 32.1887C63.07 32.6802 62.6726 33.0776 62.1811 33.0776Z" fill="black"/>
<path d="M68.1086 33.0801C67.8677 33.0801 67.6455 32.9833 67.4775 32.8135C67.3086 32.6455 67.21 32.4233 67.21 32.1913C67.21 31.9513 67.3077 31.721 67.4775 31.5601C67.8055 31.2313 68.402 31.2313 68.73 31.5601C68.8988 31.729 68.9877 31.9513 68.9877 32.1913C68.9877 32.4233 68.8988 32.6455 68.73 32.8135C68.65 32.9024 68.5531 32.9646 68.4464 33.009C68.3397 33.0535 68.2242 33.0801 68.1086 33.0801Z" fill="black"/>
<path d="M17.8503 33.0801C17.6103 33.0801 17.3881 32.9833 17.2192 32.8135C17.0503 32.6535 16.9614 32.4313 16.9614 32.1913C16.9614 32.0757 16.9881 31.9601 17.0325 31.8446C17.077 31.7379 17.1392 31.6401 17.2192 31.5601C17.5481 31.2313 18.1436 31.2313 18.4814 31.5601C18.5614 31.6401 18.6236 31.7379 18.6681 31.8446C18.7125 31.9601 18.7392 32.0757 18.7392 32.1913C18.7392 32.3068 18.7125 32.4233 18.6681 32.529C18.6236 32.6357 18.5614 32.7335 18.4814 32.8135C18.3125 32.9824 18.0903 33.0801 17.8503 33.0801Z" fill="black"/>
</svg>
