<svg width="81" height="31" viewBox="0 0 81 31" fill="none" xmlns="http://www.w3.org/2000/svg">
<path d="M67.203 31.0001C63.435 31.0001 60.3691 28.1354 60.3691 24.6147C60.3691 21.0939 63.4341 18.2292 67.203 18.2292C70.9719 18.2292 74.0368 21.093 74.0368 24.6147C74.0368 28.1363 70.971 31.0001 67.203 31.0001ZM67.203 19.8904C64.4154 19.8904 62.1469 22.01 62.1469 24.6147C62.1469 27.2201 64.4154 29.3389 67.203 29.3389C69.9915 29.3389 72.2591 27.2193 72.2591 24.6147C72.2599 22.01 69.9915 19.8904 67.203 19.8904Z" fill="black"/>
<path d="M17.5033 31.0001C13.7352 31.0001 10.6694 28.1354 10.6694 24.6147C10.6694 21.0939 13.7352 18.2292 17.5033 18.2292C21.2713 18.2292 24.3371 21.093 24.3371 24.6147C24.3371 28.1363 21.2713 31.0001 17.5033 31.0001ZM17.5033 19.8904C14.7157 19.8904 12.4472 22.01 12.4472 24.6147C12.4472 27.2201 14.7157 29.3389 17.5033 29.3389C20.2909 29.3389 22.5593 27.2193 22.5593 24.6147C22.5593 22.01 20.2909 19.8904 17.5033 19.8904Z" fill="black"/>
<path d="M12.1072 27.7772C12.0228 27.7772 11.9375 27.7656 11.8521 27.7424L5.10805 25.8595C2.39513 25.1028 0.5 22.7249 0.5 20.0795V14.9782C0.5 13.8918 0.81467 12.8237 1.40934 11.891L5.84673 4.92999C7.47874 2.36935 10.4743 0.778809 13.6637 0.778809H40.6951C43.3245 0.778809 45.9147 1.42998 48.1859 2.66254L57.7469 7.84611L72.9239 11.7755C77.3853 12.9308 80.5 16.7589 80.5 21.0837V23.8827C80.5 25.5264 79.1853 26.9359 77.4431 27.1601L72.7204 27.7689C72.2288 27.8362 71.7844 27.514 71.7186 27.0596C71.651 26.6053 71.9915 26.1859 72.4777 26.1236L77.2004 25.5148C78.0689 25.4027 78.7231 24.7008 78.7231 23.8827V21.0837C78.7231 17.5023 76.1435 14.3337 72.4501 13.3769L57.1629 9.41838C57.0891 9.39927 57.0197 9.37186 56.954 9.33615L47.2943 4.09859C45.2925 3.01304 43.0116 2.43994 40.696 2.43994H13.6646C11.0983 2.43994 8.68765 3.71985 7.37474 5.77966L2.93647 12.7406C2.50536 13.4167 2.2778 14.1908 2.2778 14.9782V20.0795C2.2778 21.9973 3.65115 23.7199 5.61739 24.2689L12.3606 26.1518C12.8308 26.2831 13.0984 26.7457 12.9579 27.1851C12.8432 27.5447 12.4904 27.7772 12.1072 27.7772Z" fill="black"/>
<path d="M61.8086 27.7776H22.9006C22.4099 27.7776 22.0117 27.4063 22.0117 26.947C22.0117 26.4877 22.4099 26.1165 22.9006 26.1165H61.8086C62.3002 26.1165 62.6975 26.4877 62.6975 26.947C62.6975 27.4063 62.2993 27.7776 61.8086 27.7776Z" fill="black"/>
<path d="M50.8277 12.8404H12.9864C11.7197 12.8404 10.5659 12.239 9.901 11.2324C9.23521 10.2257 9.17655 8.99233 9.74366 7.93419L13.3321 1.23732C13.5517 0.827018 14.0859 0.660075 14.525 0.866886C14.9642 1.07204 15.1419 1.57121 14.9215 1.98151L11.333 8.67838C11.0441 9.21742 11.0735 9.84698 11.413 10.3603C11.7526 10.8736 12.3401 11.18 12.9864 11.18H50.8277C52.1024 11.18 53.3388 10.7548 54.3104 9.98403L56.8242 7.98651C57.1966 7.69 57.7575 7.7307 58.0766 8.0812C58.394 8.43087 58.3495 8.95496 57.9753 9.2523L55.4615 11.2498C54.169 12.2747 52.5237 12.8404 50.8277 12.8404Z" fill="black"/>
<path d="M67.2034 25.4409C67.0878 25.4409 66.9722 25.4234 66.8656 25.3827C66.75 25.3412 66.6611 25.2831 66.5722 25.2C66.4033 25.0422 66.3145 24.8346 66.3145 24.6103C66.3145 24.5597 66.3233 24.5023 66.3322 24.4525C66.3411 24.4027 66.3589 24.3445 66.3865 24.2955C66.4042 24.2449 66.4309 24.1959 66.4665 24.1543C66.4931 24.112 66.5376 24.063 66.5731 24.0298C66.902 23.7141 67.5065 23.7224 67.8354 24.0298C67.8709 24.063 67.9065 24.1128 67.942 24.1543C67.9776 24.1959 68.0034 24.2449 68.022 24.2955C68.0487 24.3454 68.0665 24.4035 68.0754 24.4525C68.0851 24.5032 68.094 24.5605 68.094 24.6103C68.094 24.7266 68.0674 24.8346 68.0229 24.9342C67.9785 25.0339 67.9162 25.1253 67.8362 25.2C67.7465 25.2831 67.6496 25.3412 67.5429 25.3827C67.4362 25.4243 67.3189 25.4409 67.2034 25.4409Z" fill="black"/>
<path d="M17.5051 25.4492C17.3896 25.4492 17.274 25.4243 17.1673 25.3828C17.0607 25.3412 16.9629 25.2831 16.874 25.2C16.7051 25.0422 16.6162 24.8346 16.6162 24.6103C16.6162 24.5024 16.634 24.3944 16.6873 24.2947C16.7318 24.1951 16.794 24.1037 16.874 24.0289C17.2029 23.7133 17.7984 23.7133 18.1273 24.0289C18.2962 24.1785 18.394 24.3944 18.394 24.6103C18.394 24.8346 18.2962 25.0422 18.1273 25.2C17.9673 25.357 17.7451 25.4492 17.5051 25.4492Z" fill="black"/>
<path d="M39.0473 12.8405C38.6455 12.8405 38.282 12.5847 38.1842 12.2035L35.5131 1.80312C35.3984 1.3571 35.6926 0.908596 36.17 0.801453C36.6491 0.69514 37.1273 0.969228 37.242 1.41524L39.9131 11.8156C40.0278 12.2616 39.7336 12.7101 39.2562 12.8173C39.186 12.8331 39.1158 12.8405 39.0473 12.8405Z" fill="black"/>
<path d="M19.4518 12.8413C19.3558 12.8413 19.258 12.8264 19.162 12.7956C18.698 12.6461 18.4518 12.1727 18.6118 11.74L22.4554 1.3396C22.6154 0.906044 23.1221 0.677639 23.5852 0.82548C24.0492 0.974982 24.2954 1.44841 24.1354 1.88196L20.2918 12.2823C20.1647 12.6245 19.8198 12.8413 19.4518 12.8413Z" fill="black"/>
</svg>
