<svg width="36" height="37" viewBox="0 0 36 37" fill="none" xmlns="http://www.w3.org/2000/svg">
<path d="M32.2028 25.4966C32.6507 25.8548 32.7521 26.4856 32.4598 26.9622L32.3785 27.0778L27.8785 32.7028C27.4635 33.2215 26.702 33.2635 26.2318 32.8222L26.1358 32.7202L23.8858 30.0202C23.488 29.5429 23.5525 28.8336 24.0298 28.4358C24.4704 28.0686 25.1088 28.0953 25.5172 28.477L25.6143 28.5798L26.9832 30.2203L30.6216 25.6723C30.9798 25.2244 31.6106 25.1229 32.0871 25.4153L32.2028 25.4966Z" fill="url(#paint0_linear_59_1552)"/>
<path d="M23.625 2.75C23.8736 2.75 24.1138 2.83231 24.309 2.98184L24.4205 3.0795L31.1705 9.8295C31.3463 10.0053 31.4579 10.2333 31.4902 10.4771L31.5 10.625V20.75C31.5 21.3713 30.9963 21.875 30.375 21.875C29.7981 21.875 29.3226 21.4407 29.2576 20.8812L29.25 20.75V11.0919L23.1581 5H7.875C7.29806 5 6.82255 5.4343 6.75757 5.9938L6.75 6.125V30.875C6.75 31.4519 7.1843 31.9274 7.7438 31.9924L7.875 32H20.25C20.8713 32 21.375 32.5037 21.375 33.125C21.375 33.7019 20.9407 34.1774 20.3812 34.2424L20.25 34.25H7.875C6.07761 34.25 4.60838 32.845 4.50573 31.0733L4.5 30.875V6.125C4.5 4.32761 5.90503 2.85838 7.67669 2.75573L7.875 2.75H23.625Z" fill="url(#paint1_linear_59_1552)"/>
<path d="M12.375 25.25C11.7537 25.25 11.25 24.7463 11.25 24.125C11.25 23.5481 11.6843 23.0726 12.2438 23.0076L12.375 23H16.875C17.4963 23 18 23.5037 18 24.125C18 24.7019 17.5657 25.1774 17.0062 25.2424L16.875 25.25H12.375Z" fill="url(#paint2_linear_59_1552)"/>
<path d="M12.375 20.75C11.7537 20.75 11.25 20.2463 11.25 19.625C11.25 19.0481 11.6843 18.5726 12.2438 18.5076L12.375 18.5L23.625 18.5C24.2463 18.5 24.75 19.0037 24.75 19.625C24.75 20.2019 24.3157 20.6774 23.7562 20.7424L23.625 20.75H12.375Z" fill="url(#paint3_linear_59_1552)"/>
<path d="M12.375 16.25C11.7537 16.25 11.25 15.7463 11.25 15.125C11.25 14.5481 11.6843 14.0726 12.2438 14.0076L12.375 14L23.625 14C24.2463 14 24.75 14.5037 24.75 15.125C24.75 15.7019 24.3157 16.1774 23.7562 16.2424L23.625 16.25H12.375Z" fill="url(#paint4_linear_59_1552)"/>
<path d="M23.625 2.75C24.2019 2.75 24.6774 3.1843 24.7424 3.7438L24.75 3.875V9.5H30.375C30.9519 9.5 31.4274 9.9343 31.4924 10.4938L31.5 10.625C31.5 11.2019 31.0657 11.6774 30.5062 11.7424L30.375 11.75H23.625C23.0481 11.75 22.5726 11.3157 22.5076 10.7562L22.5 10.625V3.875C22.5 3.25368 23.0037 2.75 23.625 2.75Z" fill="url(#paint5_linear_59_1552)"/>
<defs>
<linearGradient id="paint0_linear_59_1552" x1="19.125" y1="29.1875" x2="26.9303" y2="38.1079" gradientUnits="userSpaceOnUse">
<stop stop-color="#A300FF"/>
<stop offset="0.511423" stop-color="#2C00FF"/>
<stop offset="1" stop-color="#00AFFF"/>
</linearGradient>
<linearGradient id="paint1_linear_59_1552" x1="-9" y1="18.5" x2="22.1294" y2="45.1824" gradientUnits="userSpaceOnUse">
<stop stop-color="#A300FF"/>
<stop offset="0.511423" stop-color="#2C00FF"/>
<stop offset="1" stop-color="#00AFFF"/>
</linearGradient>
<linearGradient id="paint2_linear_59_1552" x1="7.875" y1="24.125" x2="9.225" y2="28.175" gradientUnits="userSpaceOnUse">
<stop stop-color="#A300FF"/>
<stop offset="0.511423" stop-color="#2C00FF"/>
<stop offset="1" stop-color="#00AFFF"/>
</linearGradient>
<linearGradient id="paint3_linear_59_1552" x1="4.5" y1="19.625" x2="5.22973" y2="24.0034" gradientUnits="userSpaceOnUse">
<stop stop-color="#A300FF"/>
<stop offset="0.511423" stop-color="#2C00FF"/>
<stop offset="1" stop-color="#00AFFF"/>
</linearGradient>
<linearGradient id="paint4_linear_59_1552" x1="4.5" y1="15.125" x2="5.22973" y2="19.5034" gradientUnits="userSpaceOnUse">
<stop stop-color="#A300FF"/>
<stop offset="0.511423" stop-color="#2C00FF"/>
<stop offset="1" stop-color="#00AFFF"/>
</linearGradient>
<linearGradient id="paint5_linear_59_1552" x1="18" y1="7.25" x2="27" y2="16.25" gradientUnits="userSpaceOnUse">
<stop stop-color="#A300FF"/>
<stop offset="0.511423" stop-color="#2C00FF"/>
<stop offset="1" stop-color="#00AFFF"/>
</linearGradient>
</defs>
</svg>
