<svg width="36" height="37" viewBox="0 0 36 37" fill="none" xmlns="http://www.w3.org/2000/svg">
<path fill-rule="evenodd" clip-rule="evenodd" d="M0 18.5C0 8.55888 8.05888 0.5 18 0.5C27.9411 0.5 36 8.55888 36 18.5C36 28.4411 27.9411 36.5 18 36.5C8.05888 36.5 0 28.4411 0 18.5ZM33.2308 18.5C33.2308 10.0883 26.4117 3.26923 18 3.26923C9.58828 3.26923 2.76923 10.0883 2.76923 18.5C2.76923 26.9117 9.58828 33.7308 18 33.7308C26.4117 33.7308 33.2308 26.9117 33.2308 18.5Z" fill="url(#paint0_linear_59_1519)"/>
<path d="M18.0002 28.1922C14.2105 28.1922 11.0771 26.1033 11.0771 22.6538C11.0771 21.8891 11.6971 21.2692 12.4618 21.2692C13.1718 21.2692 13.7571 21.8037 13.8371 22.4923L13.8464 22.6538C13.8464 24.2811 15.5592 25.423 18.0002 25.423C20.4413 25.423 22.1541 24.2811 22.1541 22.6538C22.1541 22.2491 21.7696 21.7617 20.8542 21.2171L20.4593 20.9963C19.9648 20.7352 19.3504 20.4625 18.6011 20.1807L17.9256 19.9369L17.5624 19.8135C13.1983 18.3588 11.0771 16.6603 11.0771 14.3461C11.0771 10.8965 14.2105 8.80762 18.0002 8.80762C21.79 8.80762 24.9233 10.8965 24.9233 14.3461C24.9233 15.1108 24.3034 15.7307 23.5387 15.7307C22.8286 15.7307 22.2434 15.1962 22.1634 14.5076L22.1541 14.3461C22.1541 12.7187 20.4413 11.5768 18.0002 11.5768C15.5592 11.5768 13.8464 12.7187 13.8464 14.3461C13.8464 14.9351 14.6693 15.705 16.7661 16.5698L17.4003 16.8194L18.0753 17.063L18.4381 17.1864C22.8062 18.6424 24.9233 20.3361 24.9233 22.6538C24.9233 26.1033 21.79 28.1922 18.0002 28.1922Z" fill="url(#paint1_linear_59_1519)"/>
<path d="M17.9998 7.4231C18.7099 7.4231 19.2952 7.95761 19.3751 8.64624L19.3845 8.80771V28.1923C19.3845 28.957 18.7646 29.5769 17.9998 29.5769C17.2898 29.5769 16.7045 29.0424 16.6245 28.3538L16.6152 28.1923V8.80771C16.6152 8.04301 17.2351 7.4231 17.9998 7.4231Z" fill="url(#paint2_linear_59_1519)"/>
<defs>
<linearGradient id="paint0_linear_59_1519" x1="-18" y1="18.5" x2="18" y2="54.5" gradientUnits="userSpaceOnUse">
<stop stop-color="#A300FF"/>
<stop offset="0.511423" stop-color="#2C00FF"/>
<stop offset="1" stop-color="#00AFFF"/>
</linearGradient>
<linearGradient id="paint1_linear_59_1519" x1="4.15407" y1="18.4999" x2="22.4909" y2="31.5976" gradientUnits="userSpaceOnUse">
<stop stop-color="#A300FF"/>
<stop offset="0.511423" stop-color="#2C00FF"/>
<stop offset="1" stop-color="#00AFFF"/>
</linearGradient>
<linearGradient id="paint2_linear_59_1519" x1="15.2306" y1="18.5" x2="20.6839" y2="19.1817" gradientUnits="userSpaceOnUse">
<stop stop-color="#A300FF"/>
<stop offset="0.511423" stop-color="#2C00FF"/>
<stop offset="1" stop-color="#00AFFF"/>
</linearGradient>
</defs>
</svg>
