<svg width="21" height="20" viewBox="0 0 21 20" fill="none" xmlns="http://www.w3.org/2000/svg">
<path fill-rule="evenodd" clip-rule="evenodd" d="M6.14976 14.5581V12.0943C6.14976 12.0413 6.17083 11.9904 6.20834 11.9529C6.24585 11.9154 6.29672 11.8943 6.34976 11.8943H8.72499C8.77803 11.8943 8.8289 11.9154 8.86641 11.9529C8.90392 11.9904 8.92499 12.0413 8.92499 12.0943V16.7584C8.92499 17.9964 9.9286 19 11.1666 19C12.4046 19 13.4082 17.9964 13.4082 16.7584V12.0943C13.4082 12.0413 13.4293 11.9904 13.4668 11.9529C13.5043 11.9154 13.5552 11.8943 13.6082 11.8943H15.9835C16.0365 11.8943 16.0874 11.9154 16.1249 11.9529C16.1624 11.9904 16.1835 12.0413 16.1835 12.0943V16.7584C16.1835 17.9964 17.1871 19 18.4251 19C19.6631 19 20.6667 17.9966 20.6667 16.7586V2.24162C20.6667 1.00361 19.6631 0 18.4251 0C17.1871 0 16.1835 1.00361 16.1835 2.24162V6.90567C16.1835 6.95871 16.1624 7.00958 16.1249 7.04709C16.0874 7.0846 16.0365 7.10567 15.9835 7.10567H13.6082C13.5552 7.10567 13.5043 7.0846 13.4668 7.04709C13.4293 7.00958 13.4082 6.95871 13.4082 6.90567V2.24162C13.4082 1.00361 12.4046 0 11.1666 0C9.9286 0 8.92499 1.00361 8.92499 2.24162V6.90567C8.92499 6.95871 8.90392 7.00958 8.86641 7.04709C8.8289 7.0846 8.77803 7.10567 8.72499 7.10567H6.34976C6.29672 7.10567 6.24585 7.0846 6.20834 7.04709C6.17083 7.00958 6.14976 6.95871 6.14976 6.90567V2.24162C6.14976 1.00361 5.14615 0 3.90814 0C2.67012 0 1.66651 1.00361 1.66651 2.24162V14.4761C1.05051 15.0594 0.666504 15.8848 0.666504 16.8C0.666504 18.5674 2.09912 20 3.86654 20C5.63396 20 7.06657 18.5674 7.06657 16.8C7.06657 15.9268 6.71677 15.1354 6.14976 14.5581ZM3.26653 13.6561C3.46434 13.6187 3.66522 13.6 3.86654 13.6001C4.10094 13.6001 4.32954 13.6253 4.54974 13.6731V12.0945C4.54974 11.6171 4.73939 11.1593 5.07696 10.8217C5.41453 10.4841 5.87237 10.2945 6.34976 10.2945H8.72499C9.20238 10.2945 9.66022 10.4841 9.99779 10.8217C10.3354 11.1593 10.525 11.6171 10.525 12.0945V16.7586C10.525 16.9287 10.5926 17.0919 10.7129 17.2123C10.8333 17.3326 10.9964 17.4002 11.1666 17.4002C11.3368 17.4002 11.5 17.3326 11.6203 17.2123C11.7406 17.0919 11.8082 16.9287 11.8082 16.7586V12.0945C11.8082 11.6171 11.9979 11.1593 12.3354 10.8217C12.673 10.4841 13.1308 10.2945 13.6082 10.2945H15.9835C16.4609 10.2945 16.9187 10.4841 17.2563 10.8217C17.5938 11.1593 17.7835 11.6171 17.7835 12.0945V16.7586C17.7835 16.9287 17.8511 17.0919 17.9714 17.2123C18.0917 17.3326 18.2549 17.4002 18.4251 17.4002C18.5953 17.4002 18.7584 17.3326 18.8788 17.2123C18.9991 17.0919 19.0667 16.9287 19.0667 16.7586V2.24162C19.0667 2.07146 18.9991 1.90826 18.8788 1.78794C18.7584 1.66761 18.5953 1.60002 18.4251 1.60002C18.2549 1.60002 18.0917 1.66761 17.9714 1.78794C17.8511 1.90826 17.7835 2.07146 17.7835 2.24162V6.90567C17.7835 7.38306 17.5938 7.84091 17.2563 8.17847C16.9187 8.51604 16.4609 8.70569 15.9835 8.70569H13.6082C13.1308 8.70569 12.673 8.51604 12.3354 8.17847C11.9979 7.84091 11.8082 7.38306 11.8082 6.90567V2.24162C11.8082 2.15737 11.7916 2.07393 11.7594 1.99609C11.7271 1.91825 11.6799 1.84752 11.6203 1.78794C11.5607 1.72836 11.49 1.6811 11.4121 1.64886C11.3343 1.61661 11.2509 1.60002 11.1666 1.60002C11.0824 1.60002 10.9989 1.61661 10.9211 1.64886C10.8432 1.6811 10.7725 1.72836 10.7129 1.78794C10.6533 1.84752 10.6061 1.91825 10.5738 1.99609C10.5416 2.07393 10.525 2.15737 10.525 2.24162V6.90567C10.525 7.38306 10.3354 7.84091 9.99779 8.17847C9.66022 8.51604 9.20238 8.70569 8.72499 8.70569H6.34976C5.87237 8.70569 5.41453 8.51604 5.07696 8.17847C4.73939 7.84091 4.54974 7.38306 4.54974 6.90567V2.24162C4.54974 2.07146 4.48215 1.90826 4.36182 1.78794C4.2415 1.66761 4.0783 1.60002 3.90814 1.60002C3.73797 1.60002 3.57478 1.66761 3.45445 1.78794C3.33413 1.90826 3.26653 2.07146 3.26653 2.24162V13.6561ZM5.46655 16.8002C5.46655 17.2245 5.29798 17.6315 4.99792 17.9315C4.69786 18.2316 4.29089 18.4002 3.86654 18.4002C3.44219 18.4002 3.03522 18.2316 2.73515 17.9315C2.43509 17.6315 2.26652 17.2245 2.26652 16.8002C2.26652 16.3758 2.43509 15.9688 2.73515 15.6688C3.03522 15.3687 3.44219 15.2002 3.86654 15.2002C4.29089 15.2002 4.69786 15.3687 4.99792 15.6688C5.29798 15.9688 5.46655 16.3758 5.46655 16.8002Z" fill="white"/>
</svg>
